<svg version="1.1" id="Ñëîé_1" xmlns="http://www.w3.org/2000/svg" xmlns:xlink="http://www.w3.org/1999/xlink" x="0" y="0" viewBox="0 0 1600 1347.9" xml:space="preserve"><style>.st2{fill:#694ff6}.st4{fill:#a292f9}.st5{fill:#7871ff}.st7{enable-background:new}.st8{fill:#664bf6}.st9{fill:#4b2bf4}.st10{fill:#b0a2fa}.st11{fill:#aa9bfa}.st12{fill:#765ef7}.st13{fill:#5500b0}.st14{fill:#4d2ef4}.st15{fill:#6b51f6}.st16{fill:#ad9ffa}.st17{fill:#9886f9}.st18{fill:#6449f6}.st19{fill:#b1a4fa}.st20{fill:#a291f9}.st21{fill:#fff}.st26{fill:#cac1fc}.st27{fill:#6053e5}.st28{fill:#816bf7}.st30{fill:#8772f8}.st31{fill:#917df8}.st44{fill:#5639f5}.st45{fill:#a393f9}.st52{fill:#c8befc}.st53{fill:#9f8ff9}.st54{fill:#c9bffc}.st55{fill:#b9adfb}.st56{fill:#a08ff9}.st58{fill:#7057f6}.st61{fill:#2e0069}.st62{fill:#9d8cf9}.st63{fill:#beb3fb}.st64{fill:#654bf6}.st65{fill:#a696f9}.st103{fill:#e1e6f0}.st128{opacity:.1;fill-rule:evenodd;clip-rule:evenodd;fill:#fcfafa}</style><linearGradient id="SVGID_1_" gradientUnits="userSpaceOnUse" x1="241.71" y1="2.183" x2="1429.226" y2="1431.022"><stop offset=".042" stop-color="#6e4dfe"/><stop offset="1" stop-color="#6a55ff"/></linearGradient><path fill="url(#SVGID_1_)" d="M0 0h1600v1347.9H0z"/><path fill="#593cf5" d="M1164.3 575.4L979.7 682.7l-14.9-8.6 184.6-107.3z"/><path class="st2" d="M1514 1009.3l-81.5 47.4c-30 17.4-78.8 17.4-108.9 0l-42.1-24.3 135.8-78.9 96.7 55.8z"/><linearGradient id="SVGID_2_" gradientUnits="userSpaceOnUse" x1="1339.003" y1="1010.579" x2="983.976" y2="211.769"><stop offset="0" stop-color="#542488"/><stop offset="1" stop-color="#151b4e"/></linearGradient><path fill="url(#SVGID_2_)" d="M1259.7 848.4l11.5-6.7-12-6.9-.2-.2z"/><path class="st4" d="M1416.1 1007.4c.4-.3.4-.7 0-.9-.4-.3-1.1-.2-1.6 0l-27.9 16.2-25.8-14.9 27.9-16.2c.4-.3.4-.7 0-.9-.4-.3-1.2-.3-1.6 0l-27.9 16.2-17.2-9.9c-.4-.3-1.1-.2-1.6 0-.4.3-.5.7 0 .9l17.2 9.9-28.3 16.4c-.4.3-.4.7 0 .9.4.3 1.1.3 1.6 0l28.3-16.4 25.8 14.9-28.3 16.4c-.4.3-.4.7 0 .9.4.3 1.1.3 1.6 0l28.3-16.4 25.8 14.9 1.6-.9-25.8-14.9 27.9-16.2z"/><path class="st4" d="M1443.5 1022.3c-.4-.3-1.2-.3-1.6 0l-27.9 16.2-1.6.9-28.3 16.4c-.4.3-.4.7 0 .9.4.3 1.1.3 1.6 0l28.3-16.4 17.2 9.9c.4.3 1.2.3 1.6 0 .4-.3.4-.7 0-.9l-17.2-9.9 27.9-16.2c.4-.2.4-.6 0-.9z"/><path class="st5" d="M1056.4 771.3h-4.3v23.8c0 .3.2.6.6.9.9.5 2.2.5 3.1 0 .4-.2.6-.6.6-.9v-23.8z"/><linearGradient id="SVGID_3_" gradientUnits="userSpaceOnUse" x1="1054.269" y1="749.841" x2="1054.269" y2="780.826"><stop offset="0" stop-color="#a99afa"/><stop offset=".458" stop-color="#9a89f9"/><stop offset="1" stop-color="#8c78f8"/></linearGradient><path d="M1072 765.7c0 9.8-7.9 17.7-17.7 17.7-9.8 0-17.7-7.9-17.7-17.7s7.9-17.7 17.7-17.7c9.7 0 17.7 7.9 17.7 17.7z" fill="url(#SVGID_3_)"/><g class="st7"><path class="st8" d="M1579.2 267.8l-62 36c-6.4 3.7-16.9 3.7-23.4 0l-39.7-22.9c-3.3-1.9-4.9-4.3-4.9-6.8l-.6 208.5c0 2.5 1.6 4.9 4.9 6.8l39.7 22.9c6.5 3.7 16.9 3.7 23.4 0l62-36c3.2-1.9 4.8-4.3 4.8-6.7l.6-208.5c0 2.5-1.6 4.9-4.8 6.7z"/><path class="st9" d="M1579.1 254.3c6.5 3.7 6.5 9.8.1 13.5l-62 36c-6.4 3.7-16.9 3.7-23.4 0l-39.7-22.9c-6.5-3.7-6.5-9.8-.1-13.5l62-36c6.4-3.7 16.9-3.7 23.4 0l39.7 22.9z"/></g><g class="st7"><path class="st8" d="M1572.9 247.1l-36.1-20.8c-5.5-3.2-14.5-3.2-20 0l-57.2 33.2c-2.7 1.6-4.1 3.7-4.1 5.7v6.5c0-2.1 1.4-4.2 4.1-5.7l57.2-33.2c5.5-3.2 14.4-3.2 20 0l36.1 20.8c2.8 1.6 4.2 3.7 4.2 5.8v-6.5c0-2.1-1.4-4.2-4.2-5.8z"/><path class="st10" d="M1574.6 246.1c6.5 3.7 6.5 9.8.1 13.5l-57.2 33.2c-6.4 3.7-16.9 3.7-23.4 0L1458 272c-6.5-3.7-6.5-9.8-.1-13.5l57.2-33.2c6.4-3.7 16.9-3.7 23.4 0l36.1 20.8zm-58.7 45.7l57.2-33.2c5.5-3.2 5.5-8.4-.1-11.6l-36.1-20.8c-5.5-3.2-14.5-3.2-20 0l-57.2 33.2c-5.5 3.2-5.5 8.4.1 11.6l36.1 20.8c5.5 3.2 14.5 3.2 20 0z"/><path class="st8" d="M1574.7 259.6l-57.2 33.2c-6.4 3.7-16.9 3.7-23.4 0L1458 272c-3.3-1.9-4.9-4.3-4.9-6.8v6.5c0 2.5 1.6 4.9 4.9 6.8l36.1 20.8c6.5 3.7 16.9 3.7 23.4 0l57.2-33.2c3.2-1.9 4.8-4.3 4.8-6.7v-6.5c0 2.4-1.6 4.9-4.8 6.7z"/></g><g class="st7"><path class="st8" d="M1551.6 239l-32.4 18.8c-6.4 3.7-16.9 3.7-23.4 0l-17.7-10.2c-3.3-1.9-4.9-4.4-4.9-6.8l-.1 26.1c0 2.5 1.6 4.9 4.9 6.8l17.7 10.2c6.5 3.7 16.9 3.7 23.4 0l32.4-18.8c3.2-1.9 4.8-4.3 4.8-6.7l.1-26.1c0 2.4-1.6 4.8-4.8 6.7z"/><path class="st11" d="M1551.5 225.4c6.5 3.7 6.5 9.8.1 13.5l-32.4 18.8c-6.4 3.7-16.9 3.7-23.4 0l-17.7-10.2c-6.5-3.7-6.5-9.8-.1-13.5l32.4-18.8c6.4-3.7 16.9-3.7 23.4 0l17.7 10.2z"/></g><path class="st10" d="M1453.3 286.9l40 23.1c6.5 3.8 17.1 3.8 23.6 0l62.6-36.4c2.5-1.5 4-3.3 4.6-5.2v-2.2c-.6 1.9-2.1 3.7-4.6 5.2l-62.6 36.4c-6.5 3.8-17 3.8-23.6 0l-40-23.1c-1.9-1.1-3.2-2.3-4-3.7v2.2c.8 1.3 2.1 2.6 4 3.7z"/><path class="st10" d="M1453.3 303l40 23.1c6.5 3.8 17.1 3.8 23.6 0l62.6-36.4c2.4-1.4 3.9-3.1 4.5-5v-2.2c-.6 1.8-2.1 3.6-4.5 5l-62.6 36.4c-6.5 3.8-17 3.8-23.6 0l-40-23.1c-1.9-1.1-3.2-2.4-4-3.8v2.2c.7 1.4 2.1 2.7 4 3.8z"/><path class="st10" d="M1579.4 303.7l-62.6 36.4c-6.5 3.8-17 3.8-23.6 0l-40-23.1c-1.9-1.1-3.3-2.4-4.1-3.8v2.2c.8 1.4 2.1 2.7 4.1 3.8l40 23.1c6.5 3.8 17.1 3.8 23.6 0l62.6-36.4c2.4-1.4 3.9-3.1 4.5-4.8v-2.2c-.6 1.7-2.1 3.4-4.5 4.8z"/><path class="st10" d="M1579.4 319.8l-62.6 36.4c-6.5 3.8-17 3.8-23.6 0l-40-23.1c-2-1.1-3.3-2.5-4.1-3.9v2.2c.8 1.4 2.2 2.8 4.1 3.9l40 23.1c6.5 3.8 17.1 3.8 23.6 0l62.6-36.4c2.3-1.4 3.8-3 4.4-4.7v-2.2c-.6 1.7-2.1 3.3-4.4 4.7z"/><path class="st10" d="M1579.4 335.9l-62.6 36.4c-6.5 3.8-17 3.8-23.6 0l-40-23.1c-2-1.2-3.4-2.5-4.2-4v2.2c.8 1.5 2.2 2.8 4.2 4l40 23.1c6.5 3.8 17.1 3.8 23.6 0l62.6-36.4c2.3-1.3 3.7-2.9 4.4-4.6v-2.2c-.6 1.7-2.1 3.3-4.4 4.6z"/><path class="st10" d="M1579.4 352l-62.6 36.4c-6.5 3.8-17 3.8-23.6 0l-40-23.1c-2-1.2-3.4-2.6-4.2-4.1v2.2c.8 1.5 2.2 2.9 4.2 4.1l40 23.1c6.5 3.8 17.1 3.8 23.6 0l62.6-36.4c2.2-1.3 3.7-2.9 4.4-4.5v-2.2c-.7 1.7-2.2 3.2-4.4 4.5z"/><path class="st10" d="M1579.4 368.2l-62.6 36.4c-6.5 3.8-17 3.8-23.6 0l-40-23.1c-2.1-1.2-3.5-2.6-4.3-4.2v2.2c.8 1.5 2.2 3 4.3 4.2l40 23.1c6.5 3.8 17.1 3.8 23.6 0l62.6-36.4c2.2-1.3 3.6-2.8 4.3-4.4v-2.2c-.7 1.6-2.1 3.1-4.3 4.4z"/><path class="st10" d="M1579.4 384.3l-62.6 36.4c-6.5 3.8-17 3.8-23.6 0l-40-23.1c-2.1-1.2-3.6-2.7-4.3-4.3v2.2c.7 1.6 2.2 3 4.3 4.3l40 23.1c6.5 3.8 17.1 3.8 23.6 0l62.6-36.4c2.1-1.2 3.5-2.7 4.3-4.3V380c-.7 1.6-2.2 3.1-4.3 4.3z"/><path class="st10" d="M1579.4 400.4l-62.6 36.4c-6.5 3.8-17 3.8-23.6 0l-40-23.1c-2.2-1.3-3.6-2.8-4.3-4.4v2.2c.7 1.6 2.2 3.1 4.3 4.4l40 23.1c6.5 3.8 17.1 3.8 23.6 0l62.6-36.4c2.1-1.2 3.5-2.7 4.2-4.2v-2.2c-.7 1.6-2.1 3-4.2 4.2z"/><path class="st10" d="M1579.4 416.5l-62.6 36.4c-6.5 3.8-17 3.8-23.6 0l-40-23.1c-2.2-1.3-3.7-2.8-4.4-4.5v2.2c.7 1.6 2.2 3.2 4.4 4.5l40 23.1c6.5 3.8 17.1 3.8 23.6 0l62.6-36.4c2-1.2 3.4-2.6 4.2-4.1v-2.2c-.8 1.5-2.1 3-4.2 4.1z"/><path class="st10" d="M1579.4 432.7l-62.6 36.4c-6.5 3.8-17 3.8-23.6 0l-40-23.1c-2.3-1.3-3.7-2.9-4.4-4.6v2.2c.7 1.7 2.2 3.3 4.4 4.6l40 23.1c6.5 3.8 17.1 3.8 23.6 0l62.6-36.4c2-1.2 3.4-2.5 4.1-4v-2.2c-.7 1.4-2.1 2.8-4.1 4z"/><path class="st10" d="M1579.4 448.8l-62.6 36.4c-6.5 3.8-17 3.8-23.6 0l-40-23.1c-2.3-1.3-3.8-3-4.5-4.7v2.2c.7 1.7 2.2 3.4 4.5 4.7l40 23.1c6.5 3.8 17.1 3.8 23.6 0l62.6-36.4c2-1.1 3.3-2.5 4.1-3.9v-2.2c-.8 1.4-2.1 2.8-4.1 3.9z"/><path class="st10" d="M1579.4 464.9l-62.6 36.4c-6.5 3.8-17 3.8-23.6 0l-40-23.1c-2.4-1.4-3.9-3.1-4.5-4.8v2.2c.7 1.8 2.2 3.4 4.5 4.8l40 23.1c6.5 3.8 17.1 3.8 23.6 0l62.6-36.4c1.9-1.1 3.3-2.4 4-3.8v-2.2c-.7 1.4-2.1 2.7-4 3.8z"/><g class="st7"><path class="st2" d="M1524.3 229.8l-.1 5.4-11.5 6.7v-5.4zm-11.6 6.7v5.4l-11.6-6.7v-5.4z"/><path class="st11" d="M1524.3 229.8l-11.6 6.7-11.6-6.7 11.5-6.7z"/></g><g class="st7"><path class="st2" d="M1517.1 224.6v5.3l-4.4 2.6v-5.4z"/><path class="st2" d="M1512.7 227.1v5.4l-4.5-2.6.1-5.3z"/><path class="st11" d="M1517.1 224.6l-4.4 2.5-4.4-2.5 4.4-2.6z"/></g><path class="st12" d="M1391.4 208.9l-.9 306.4-31.1 18.1.8-306.4z"/><path class="st13" d="M1348.7 243.1l.1 6.2-5.4 3.1v-6.2zm10.4-5.9v6.2l-5.4 3v-6.1z"/><path class="st14" d="M1374.2 228.5v6.1l-5.4 3.1v-6.1zm10.3-6v6.2l-5.3 3.1-.1-6.2z"/><path class="st13" d="M1348.8 255v6.2l-5.4 3v-6.1zm10.3-6v6.2l-5.3 3.1v-6.2zm15.1-8.7v6.2l-5.3 3.1-.1-6.2z"/><path class="st14" d="M1384.5 234.4v6.1l-5.3 3.1v-6.1z"/><path class="st13" d="M1348.8 266.8v6.2l-5.3 3.1v-6.2zm10.3-5.9l.1 6.1-5.4 3.1V264zm15.1-8.7l.1 6.1-5.4 3.1v-6.1zm10.4-6v6.2l-5.4 3.1v-6.2zm-35.7 32.5v6.2l-5.4 3v-6.1zm10.3-6v6.2l-5.4 3.1v-6.2zm15.1-8.7v6.2l-5.4 3.1v-6.2zm10.3-5.9v6.1l-5.3 3.1-.1-6.1zm-35.7 32.4v6.2l-5.4 3.1v-6.2zm10.3-5.9v6.1l-5.3 3.1v-6.1zm15.1-8.7v6.1l-5.3 3.1-.1-6.1zm10.3-6l.1 6.2-5.4 3.1V273zm-35.7 32.5v6.2l-5.3 3v-6.1zm10.3-6l.1 6.2-5.4 3.1v-6.2zm15.1-8.7l.1 6.2-5.4 3.1v-6.2zm10.4-5.9v6.1l-5.4 3.1v-6.1zm-35.7 32.4v6.2l-5.4 3.1v-6.2zm10.3-5.9v6.1l-5.4 3.1v-6.1zm15.1-8.7v6.1l-5.4 3.1v-6.1zm10.3-6v6.2l-5.3 3.1-.1-6.2zm-35.7 32.5v6.2l-5.4 3.1v-6.2zm10.3-6v6.2l-5.3 3.1v-6.2zm15.1-8.7v6.2l-5.3 3.1-.1-6.2zm10.3-5.9l.1 6.1-5.4 3.1v-6.1zM1349 338v6.1l-5.3 3.1V341zm10.3-6l.1 6.1-5.4 3.1v-6.1zm15.1-8.7l.1 6.1-5.4 3.1v-6.1zm10.4-6v6.2l-5.4 3.1v-6.2zm-35.7 32.5v6.2l-5.4 3.1v-6.2zm10.3-6v6.2l-5.4 3.1v-6.2zm15.1-8.7v6.2l-5.4 3.1v-6.2zm10.3-5.9v6.1l-5.3 3.1-.1-6.1zm-35.7 32.4v6.2l-5.4 3.1v-6.2zm10.3-5.9v6.1l-5.3 3.1v-6.1zm15.1-8.7v6.1l-5.3 3.1-.1-6.1zm10.3-6l.1 6.2-5.4 3.1v-6.2zm-35.7 32.5v6.2l-5.3 3v-6.1zm10.3-6l.1 6.2-5.4 3.1v-6.2zm15.1-8.7l.1 6.2-5.4 3.1v-6.2zm10.4-5.9v6.1l-5.4 3.1v-6.2zm-35.7 32.4v6.2l-5.4 3.1v-6.2zm10.3-5.9v6.1l-5.4 3.1v-6.1zm15.1-8.7v6.1l-5.4 3.1v-6.1zm10.3-6v6.2l-5.3 3.1-.1-6.2zm-35.7 32.5v6.2l-5.4 3v-6.1zm10.3-6v6.2l-5.3 3.1v-6.2zm15.1-8.7v6.2l-5.3 3.1-.1-6.2zm10.3-6l.1 6.2-5.4 3.1v-6.2zm-35.7 32.5v6.2l-5.3 3.1v-6.2zm10.3-5.9l.1 6.1-5.4 3.1v-6.1zm15.1-8.7l.1 6.1-5.4 3.1v-6.1zm10.4-6v6.2l-5.4 3.1v-6.2zm-35.7 32.5v6.2l-5.4 3V424zm10.3-6v6.2l-5.4 3.1V418zm15.1-8.7v6.2l-5.4 3.1v-6.2zm10.3-6v6.2l-5.3 3.1-.1-6.2zm-35.7 32.5v6.2l-5.4 3.1v-6.2zm10.3-5.9v6.1l-5.3 3.1v-6.1zm15.1-8.7v6.1l-5.3 3.1-.1-6.1zm10.3-6l.1 6.2-5.4 3.1v-6.2zm-35.7 32.5v6.1l-5.3 3.1v-6.1zm10.3-6l.1 6.2-5.4 3.1v-6.2zm15.1-8.7l.1 6.2-5.4 3.1V433zm10.4-5.9v6.1l-5.4 3.1v-6.1z"/><path class="st9" d="M1336 277.2l-.8 306.4-87.1-50.3.8-306.4z"/><path class="st12" d="M1391.4 245l-.9 306.4-55.3 32.2.8-306.4z"/><path class="st15" d="M1391.4 208.9l-31.2 18.1 31.2 18-55.4 32.2-87.1-50.3 86.6-50.3z"/><path class="st14" d="M1349.7 277.8v6.1l-5.4 3.1v-6.1zm10.3-6v6.2l-5.3 3.1-.1-6.2zm15.1-8.7v6.1l-5.4 3.1v-6.1zm10.3-6v6.2l-5.3 3.1v-6.2zm-35.7 32.5v6.2l-5.3 3.1-.1-6.2zm10.3-5.9v6.1l-5.3 3.1v-6.2zm15.1-8.8v6.2l-5.3 3.1V278zm10.4-5.9v6.1l-5.4 3.1v-6.1zm-35.8 32.5l.1 6.1-5.4 3.1v-6.2zm10.4-6v6.2l-5.4 3.1v-6.2zm15.1-8.7v6.1l-5.4 3.1v-6.1zm10.3-6v6.2l-5.4 3.1v-6.2zm-35.7 32.5v6.2l-5.4 3.1v-6.2zm10.3-6v6.2l-5.3 3.1-.1-6.2zm15.1-8.7v6.2l-5.4 3.1v-6.2zm10.3-5.9v6.1l-5.3 3.1v-6.1zm-35.7 32.5v6.1l-5.3 3.1v-6.2zm10.3-6l.1 6.2-5.4 3v-6.1zm15.1-8.7v6.1l-5.3 3.1v-6.1zm10.4-6v6.2l-5.4 3.1v-6.2zm-35.8 32.5l.1 6.2-5.4 3.1v-6.2zm10.4-6v6.2l-5.4 3.1v-6.2zm15.1-8.7v6.2l-5.4 3.1v-6.2zm10.3-5.9v6.1l-5.4 3.1v-6.1zm-35.7 32.5v6.1l-5.4 3.1v-6.2zm10.3-6v6.2l-5.3 3-.1-6.1zm15.1-8.7v6.1l-5.4 3.1v-6.1zm10.3-6v6.2l-5.3 3.1v-6.2zm-35.7 32.5v6.2l-5.3 3.1v-6.2zm10.3-6l.1 6.2-5.4 3.1v-6.2zm15.1-8.7v6.2l-5.3 3.1v-6.2zm10.4-5.9v6.1l-5.4 3.1v-6.1zm-35.8 32.5l.1 6.1-5.4 3.1v-6.1zm10.4-6v6.2l-5.4 3v-6.1zm15.1-8.7v6.1l-5.4 3.1V361zm10.3-6v6.2l-5.4 3.1V355zm-35.7 32.5v6.2l-5.4 3.1v-6.2zm10.3-6v6.2l-5.3 3.1-.1-6.2zm15.1-8.7v6.2l-5.4 3.1v-6.2zm10.3-5.9v6.1l-5.3 3.1v-6.1zm-35.7 32.5v6.1l-5.3 3.1v-6.2zm10.3-6l.1 6.1-5.4 3.1v-6.1zm15.1-8.7v6.1l-5.3 3.1v-6.1zm10.4-6v6.2l-5.4 3.1v-6.2zm-35.8 32.5l.1 6.2-5.4 3.1v-6.2zm10.4-6v6.2l-5.4 3.1v-6.2zm15.1-8.7v6.2l-5.4 3.1v-6.2zm10.3-5.9v6.1l-5.4 3.1v-6.1zm-35.7 32.5v6.1l-5.4 3.1V423zm10.3-6v6.1l-5.3 3.1-.1-6.1zm15.1-8.7v6.1l-5.4 3.1v-6.1zm10.3-6v6.2l-5.3 3.1v-6.2zm-35.7 32.5v6.2l-5.3 3.1v-6.2zm10.3-6l.1 6.2-5.4 3.1v-6.2zm15.1-8.7v6.2l-5.3 3.1v-6.2zm10.4-5.9v6.1l-5.4 3.1v-6.1zm-35.8 32.5l.1 6.1-5.4 3.1v-6.2zm10.4-6v6.1l-5.4 3.1v-6.1zm15.1-8.7v6.1l-5.4 3.1v-6.1zm10.3-6v6.2l-5.4 3.1v-6.2zm-35.7 32.5v6.2l-5.4 3.1v-6.2zm10.3-6v6.2l-5.3 3.1-.1-6.2zm15.1-8.7v6.2l-5.4 3.1v-6.2zm10.3-5.9v6.1l-5.3 3.1V438zm-35.7 32.4v6.2l-5.3 3.1v-6.2zm10.3-5.9l.1 6.2-5.4 3v-6.1zm15.1-8.7v6.1l-5.3 3.1v-6.1zm10.4-6v6.2l-5.4 3.1v-6.2zm-35.8 32.5l.1 6.2-5.4 3v-6.1zm10.4-6v6.2l-5.4 3.1v-6.2zm15.1-8.7v6.2l-5.4 3.1v-6.2zm10.3-5.9v6.1l-5.4 3.1v-6.1zm-35.7 32.5v6.1l-5.3 3.1v-6.2zm10.3-6l.1 6.2-5.4 3v-6.1zm15.1-8.7l.1 6.1-5.4 3.1v-6.1zm10.4-6v6.2l-5.4 3.1v-6.2zm-35.7 32.5v6.2l-5.4 3.1V506zm10.3-6v6.2l-5.4 3.1V500zm15.1-8.7v6.2l-5.4 3.1v-6.2zm10.3-5.9v6.1l-5.3 3.1-.1-6.1zm-35.7 32.4v6.2l-5.4 3.1v-6.2zm10.3-5.9v6.2l-5.3 3v-6.1zm15.1-8.7v6.1l-5.3 3.1-.1-6.1zm10.3-6l.1 6.2-5.4 3.1v-6.2zm-35.7 32.5v6.2l-5.3 3v-6.1zm10.3-6l.1 6.2-5.4 3.1v-6.2zm15.1-8.7l.1 6.2-5.4 3.1V515zm10.4-5.9v6.1l-5.4 3.1v-6.1zm-35.7 32.4v6.2l-5.4 3.1v-6.2zm10.3-5.9v6.2l-5.4 3v-6.1zm15.1-8.7v6.1l-5.4 3.1v-6.1zm10.3-6v6.2l-5.3 3.1-.1-6.2zm-35.7 32.5v6.2l-5.3 3.1-.1-6.2zm10.3-6v6.2l-5.3 3.1v-6.2zm15.1-8.7v6.2l-5.3 3.1-.1-6.2zm10.3-5.9l.1 6.1-5.4 3.1v-6.1zm-35.7 32.5v6.1l-5.3 3.1v-6.2zm10.3-6l.1 6.1-5.4 3.1v-6.1zm15.1-8.7l.1 6.1-5.4 3.1v-6.1zm10.4-6v6.2l-5.4 3.1v-6.2z"/><path class="st15" d="M1306.2 267.7v6.1l5.4 3.1v-6.1zm-10.3-6v6.2l5.3 3.1v-6.2zm-15.1-8.7v6.2l5.3 3 .1-6.1zm-10.3-6v6.2l5.3 3.1v-6.2zm35.7 32.5v6.2l5.3 3.1v-6.2zm-10.3-5.9l-.1 6.1 5.4 3.1v-6.2zm-15.1-8.8l-.1 6.2 5.4 3.1v-6.2zm-10.4-5.9v6.1l5.4 3.1V262zm35.8 32.5l-.1 6.1 5.4 3.1v-6.1zm-10.4-6v6.2l5.4 3.1v-6.2zm-15.1-8.7v6.1l5.4 3.1v-6.1zm-10.3-6v6.2l5.4 3.1v-6.2zm35.7 32.5v6.2l5.4 3.1v-6.2zm-10.3-5.9v6.1l5.3 3.1v-6.2zm-15.1-8.8v6.2l5.3 3.1.1-6.2zm-10.3-5.9v6.1l5.3 3.1v-6.1zm35.7 32.5v6.1l5.3 3.1v-6.2zm-10.3-6l-.1 6.2 5.4 3.1v-6.2zm-15.1-8.7l-.1 6.1 5.4 3.1v-6.1zm-10.4-6v6.2l5.4 3.1v-6.2zm35.8 32.5l-.1 6.2 5.4 3.1V330zm-10.4-6v6.2l5.4 3.1V324zm-15.1-8.7v6.2l5.4 3.1v-6.2zm-10.3-5.9v6.1l5.4 3.1v-6.1zm35.7 32.5v6.1l5.4 3.1v-6.2zm-10.3-6v6.2l5.3 3v-6.1zm-15.1-8.7v6.1l5.3 3.1.1-6.1zm-10.3-6v6.2l5.3 3.1v-6.2zm35.7 32.5v6.2l5.3 3.1v-6.2zm-10.3-6l-.1 6.2 5.4 3.1v-6.2zm-15.1-8.7l-.1 6.2 5.4 3.1V339zm-10.4-5.9v6.1l5.4 3.1v-6.1zm35.8 32.5l-.1 6.1 5.4 3.1v-6.1zm-10.4-6v6.2l5.4 3v-6.1zm-15.1-8.7v6.1l5.4 3.1v-6.1zm-10.3-6v6.2l5.4 3.1v-6.2zm35.7 32.5v6.2l5.4 3.1v-6.2zm-10.3-6v6.2l5.3 3.1v-6.2zm-15.1-8.7v6.2l5.3 3.1.1-6.2zm-10.3-5.9v6.1l5.3 3.1v-6.1zm35.7 32.5v6.1l5.3 3.1v-6.1zm-10.3-6l-.1 6.2 5.4 3v-6.1zm-15.1-8.7l-.1 6.1 5.4 3.1v-6.1zm-10.4-6v6.2l5.4 3.1v-6.2zm35.8 32.5l-.1 6.2 5.4 3.1v-6.2zm-10.4-6v6.2l5.4 3.1v-6.2zm-15.1-8.7v6.2l5.4 3.1v-6.2zm-10.3-5.9v6.1l5.4 3.1v-6.1zm35.7 32.5v6.1l5.4 3.1V413zm-10.3-6v6.1l5.3 3.1V407zm-15.1-8.7v6.1l5.3 3.1.1-6.1zm-10.3-6v6.2l5.3 3.1v-6.2zm35.7 32.5v6.2l5.3 3.1v-6.2zm-10.3-6l-.1 6.2 5.4 3.1v-6.2zm-15.1-8.7l-.1 6.2 5.4 3.1v-6.2zm-10.4-5.9v6.1l5.4 3.1v-6.1zm35.8 32.5l-.1 6.1 5.4 3.1v-6.2zm-10.4-6v6.1l5.4 3.1v-6.1zm-15.1-8.7v6.1l5.4 3.1V422zm-10.3-6v6.2l5.4 3.1V416zm35.7 32.5v6.2l5.4 3.1v-6.2zm-10.3-6v6.2l5.3 3.1v-6.2zm-15.1-8.7v6.2l5.3 3.1.1-6.2zm-10.3-5.9v6.1l5.3 3.1v-6.1zm35.7 32.5v6.1l5.3 3.1v-6.2zm-10.3-6l-.1 6.2 5.4 3v-6.1zm-15.1-8.7l-.1 6.1 5.4 3.1v-6.1zm-10.4-6v6.2l5.4 3.1v-6.2zm35.8 32.5l-.1 6.2 5.4 3.1v-6.2zm-10.4-6v6.2l5.4 3.1v-6.2zm-15.1-8.7v6.2l5.4 3.1v-6.2zm-10.3-5.9v6.1l5.4 3.1v-6.1zm35.7 32.5v6.1l5.3 3.1V484zm-10.4-6v6.2l5.4 3.1v-6.2zm-15-8.7l-.1 6.1 5.4 3.1v-6.1zm-10.4-6v6.2l5.4 3.1v-6.2zm35.7 32.5v6.2l5.4 3.1v-6.2zm-10.3-6v6.2l5.3 3.1.1-6.2zm-15.1-8.7v6.2l5.4 3.1v-6.2zm-10.3-5.9v6.1l5.3 3.1.1-6.1zm35.7 32.5v6.1l5.3 3.1.1-6.2zm-10.3-6v6.2l5.3 3v-6.1zm-15.1-8.7v6.1l5.3 3.1.1-6.1zm-10.3-6l-.1 6.2 5.4 3.1v-6.2zm35.7 32.5v6.2l5.3 3.1v-6.2zm-10.4-6v6.2l5.4 3.1v-6.2zm-15-8.7l-.1 6.2 5.4 3.1v-6.2zm-10.4-5.9v6.1l5.4 3.1V499zm35.7 32.5v6.1l5.4 3.1v-6.2zm-10.3-6v6.2l5.3 3 .1-6.1zm-15.1-8.7v6.1l5.4 3.1v-6.1zm-10.3-6v6.2l5.3 3.1.1-6.2zm35.7 32.5v6.2l5.3 3.1.1-6.2zm-10.3-6v6.2l5.3 3.1v-6.2zm-15.1-8.7v6.2l5.3 3.1v-6.2zm-10.3-5.9l-.1 6.1 5.4 3.1v-6.1zm35.7 32.5v6.1l5.3 3.1v-6.1zm-10.4-6v6.2l5.4 3v-6.1zm-15-8.7l-.1 6.1 5.4 3.1v-6.1zm-10.4-6v6.2l5.4 3.1v-6.2z"/><path class="st16" d="M1226.4 360.4l-.9 344.6-86.3 50.2.9-344.6z"/><path class="st17" d="M1140.1 410.6l-.9 344.6-86.8-50.2.9-344.6z"/><path class="st15" d="M1226.4 360.4l-86.3 50.2-86.8-50.2 86.2-50.1z"/><path class="st18" d="M1072.6 408.5l-.1 13.1-7.2-4.2v-13.1z"/><path class="st19" d="M1072.6 392.4v13.1l-7.3-4.2.1-13.1z"/><path class="st18" d="M1072.5 440.7v13.1l-7.3-4.2v-13.1zm0-16.1v13.1l-7.2-4.2v-13.1zm-.4 144.8v13.2l-7.3-4.2.1-13.2zm.1-16.1l-.1 13.1-7.2-4.1v-13.2zm0-16.1v13.2l-7.3-4.2.1-13.2zm.1-16.1l-.1 13.2-7.2-4.2v-13.2zm0-16.1v13.2l-7.3-4.2.1-13.1zm.1-16.1l-.1 13.2-7.2-4.2v-13.2z"/><path class="st19" d="M1072.4 472.8V486l-7.3-4.2.1-13.1z"/><path class="st18" d="M1072.4 456.8v13.1l-7.2-4.2v-13.1zm-.4 160.9v13.1l-7.3-4.2v-13.1z"/><path class="st19" d="M1072 601.6v13.1l-7.3-4.1.1-13.2z"/><path class="st18" d="M1072.1 585.5l-.1 13.1-7.2-4.1v-13.2zm-.2 48.3v13.1l-7.2-4.2v-13.1zm0 16.1V663l-7.3-4.2v-13.1zm0 16.1l-.1 13.1-7.2-4.2v-13.1z"/><path class="st20" d="M1065.4 388.2l-.1 13.1 7.3 4.2v3l-7.3-4.2v13.1l7.2 4.2v3l-7.2-4.2v13.1l7.2 4.2v3l-7.3-4.2v13.1l7.3 4.2-.1 3-7.2-4.2v13.1l7.2 4.2v2.9l-7.2-4.1-.1 13.1 7.3 4.2v2.9l-7.3-4.2v13.2l7.2 4.2v2.9l-7.2-4.1-.1 13.1 7.3 4.2v2.9l-7.3-4.2v13.2l7.2 4.2v2.9l-7.2-4.2-.1 13.2 7.3 4.2v2.9l-7.3-4.2v13.2l7.2 4.1v3l-7.2-4.2-.1 13.2 7.3 4.2v2.9l-7.3-4.2v13.2l7.2 4.1v3l-7.2-4.2-.1 13.2 7.3 4.1v3l-7.3-4.2v13.1l7.3 4.2-.1 3-7.2-4.2v13.1l7.2 4.2v3l-7.3-4.2v13.1l7.3 4.2v3l-7.3-4.2v13.1l7.2 4.2v11.6l-7.3-4.2z"/><path class="st18" d="M1090 402.4l-.1 13.1-7.2-4.2v-13.1zm-.2 48.3v13.1l-7.3-4.2.1-13.1zm.1-16.1l-.1 13.1-7.2-4.2v-13.1zm0-16.1v13.1l-7.3-4.2.1-13.1zm-.2 64.3V496l-7.3-4.2.1-13.1zm.1-16l-.1 13.1-7.2-4.2v-13.1zm-.1 32.1l-.1 13.2-7.2-4.2v-13.2zm-.1 16.1v13.2l-7.3-4.2.1-13.1zm-.2 80.5v13.1l-7.3-4.1.1-13.2zm.1-16.1l-.1 13.2-7.2-4.2v-13.2zm0-16.1v13.1l-7.3-4.1v-13.2zm0-16.1v13.2l-7.2-4.2V543z"/><path class="st19" d="M1089.6 531.1v13.2l-7.3-4.2v-13.2zm-.3 96.6v13.1l-7.3-4.2.1-13.1z"/><path class="st18" d="M1089.4 611.6l-.1 13.1-7.2-4.1v-13.2z"/><g class="st7"><path class="st18" d="M1089.2 676l-.1 13.1-7.2-4.2v-13.1z"/><path class="st19" d="M1089.2 659.9V673l-7.3-4.2.1-13.1z"/><path class="st18" d="M1089.3 643.8l-.1 13.1-7.2-4.2v-13.1z"/><path class="st20" d="M1082.7 398.2v13.1l7.2 4.2v3l-7.2-4.2-.1 13.1 7.3 4.2v3l-7.3-4.2v13.1l7.2 4.2v3l-7.2-4.2-.1 13.1 7.3 4.2v3l-7.3-4.2v13.1l7.2 4.2v2.9l-7.2-4.1-.1 13.1 7.3 4.2v2.9l-7.3-4.2v13.2l7.2 4.2v2.9l-7.2-4.1-.1 13.1 7.3 4.2v2.9l-7.3-4.2v13.2l7.3 4.2-.1 2.9-7.2-4.2v13.2l7.2 4.2v2.9l-7.3-4.2v13.2l7.3 4.1v3l-7.3-4.2v13.2l7.2 4.2v2.9l-7.2-4.2-.1 13.2 7.3 4.1v3l-7.3-4.2v13.2l7.2 4.1v3l-7.2-4.2-.1 13.1 7.3 4.2v3l-7.3-4.2v13.1l7.2 4.2v3l-7.2-4.2-.1 13.1 7.3 4.2v3l-7.3-4.2v13.1l7.2 4.2v11.6l-7.2-4.2z"/></g><path class="st18" d="M1107.1 460.7v13.1l-7.3-4.2.1-13.1zm.1-16.1l-.1 13.1-7.2-4.2v-13.1zm-.3 112.6l-.1 13.2-7.2-4.2V553zm0-16.1v13.2l-7.3-4.2.1-13.2z"/><g class="st7"><path class="st18" d="M1106.8 589.4l-.1 13.1-7.2-4.1v-13.2zm0-16.1v13.1l-7.3-4.1.1-13.2z"/><path class="st20" d="M1100 408.2v13.1l7.2 4.2v3l-7.2-4.2-.1 13.1 7.3 4.2v3l-7.3-4.2v13.1l7.2 4.2v3l-7.2-4.2-.1 13.1 7.3 4.2v2.9l-7.3-4.1v13.1l7.2 4.2v2.9l-7.2-4.1v13.1l7.2 4.2v2.9l-7.3-4.2v13.2l7.3 4.2-.1 2.9-7.2-4.1V534l7.2 4.2v2.9l-7.2-4.2-.1 13.2 7.3 4.2v2.9l-7.3-4.2v13.2l7.2 4.2v2.9l-7.2-4.2-.1 13.2 7.3 4.1v3l-7.3-4.2v13.2l7.2 4.1v3l-7.2-4.2-.1 13.2 7.3 4.1v3l-7.3-4.2v13.2l7.2 4.1v3l-7.2-4.2-.1 13.1 7.3 4.2v3l-7.3-4.2v13.1l7.2 4.2v3l-7.2-4.2v13.1l7.2 4.2v3l-7.3-4.2v13.1l7.3 4.2-.1 11.6-7.2-4.2z"/></g><path class="st19" d="M1107.2 428.5v13.1l-7.3-4.2.1-13.1z"/><path class="st18" d="M1107.3 412.4l-.1 13.1-7.2-4.2v-13.1zm-.2 64.3l-.1 13.2-7.2-4.2v-13.1z"/><path class="st19" d="M1107 492.8V506l-7.2-4.2v-13.1z"/><path class="st18" d="M1106.9 525v13.2l-7.2-4.2v-13.1z"/><path class="st19" d="M1107 508.9v13.2l-7.3-4.2v-13.2z"/><path class="st18" d="M1106.5 686v13.1l-7.3-4.2v-13.1zm0-16.1V683l-7.2-4.2v-13.1zm.1-16.1l-.1 13.1-7.2-4.2v-13.1zm0-16.1v13.1l-7.3-4.2.1-13.1z"/><g class="st7"><path class="st18" d="M1106.7 621.6l-.1 13.1-7.2-4.1v-13.2zm0-16.1v13.1l-7.3-4.1.1-13.2z"/></g><path class="st18" d="M1123.9 663.8v13.1l-7.3-4.2v-13.1z"/><g class="st7"><path class="st20" d="M1117.3 418.2v13.1l7.2 4.2v3l-7.2-4.2-.1 13.1 7.3 4.2v3l-7.3-4.2v13.1l7.3 4.2-.1 3-7.2-4.2v13.1l7.2 4.2v2.9l-7.3-4.1v13.1l7.3 4.2v2.9l-7.3-4.2v13.2l7.2 4.2v2.9l-7.2-4.2-.1 13.2 7.3 4.2v2.9l-7.3-4.2V544l7.2 4.2v2.9l-7.2-4.2-.1 13.2 7.3 4.2v2.9l-7.3-4.2v13.2l7.2 4.2v2.9l-7.2-4.2-.1 13.2 7.3 4.1v3l-7.3-4.2v13.2l7.2 4.1v3l-7.2-4.2-.1 13.2 7.3 4.1v3l-7.3-4.2v13.1l7.3 4.2-.1 3-7.2-4.2v13.1l7.2 4.2v3l-7.3-4.2v13.1l7.3 4.2v3l-7.3-4.2v13.1l7.2 4.2v3l-7.2-4.2-.1 13.1 7.3 4.2-.1 11.6-7.2-4.2z"/><path class="st18" d="M1123.8 696v13.1l-7.3-4.2.1-13.1zm.1-16.1l-.1 13.1-7.2-4.2v-13.1zm0-32.2v13.1l-7.2-4.2v-13.1zm.1-16.1v13.1l-7.3-4.2v-13.1zm0-16.1v13.1l-7.3-4.1.1-13.2zm.1-16.1l-.1 13.1-7.2-4.1v-13.2z"/><path class="st19" d="M1124.1 583.3v13.1l-7.3-4.1.1-13.2z"/><path class="st18" d="M1124.3 535l-.1 13.2-7.2-4.2v-13.2zm0-16.1v13.2l-7.3-4.2.1-13.2zm.2-80.4v13.1l-7.3-4.2.1-13.1zm.1-16.1l-.1 13.1-7.2-4.2v-13.1z"/></g><path class="st18" d="M1124.5 454.6v13.1l-7.3-4.2v-13.1zm-.1 48.2l-.1 13.2-7.2-4.2v-13.2zm0-16.1v13.2l-7.3-4.2v-13.1z"/><path class="st19" d="M1124.4 470.7v13.1l-7.2-4.2v-13.1zm-.2 80.4v13.2l-7.3-4.2.1-13.2z"/><path class="st18" d="M1124.2 567.2l-.1 13.2-7.2-4.2V563zm37.9-19.6v13.1l-7.2 4.2v-13.1zm0-16.1v13.1l-7.2 4.2-.1-13.1zm0 32.2l.1 13.1-7.3 4.2v-13.2zm.1 16.1v13.1l-7.2 4.2v-13.2zm.2 80.4l.1 13.2-7.3 4.1v-13.1zm0-16.1v13.2l-7.2 4.2-.1-13.2zm-.1-16.1l.1 13.2-7.3 4.2v-13.2zm0-16.1v13.2l-7.2 4.2-.1-13.2zm-.1-16.1l.1 13.2-7.3 4.2V600z"/><g class="st7"><path class="st16" d="M1154.5 423v13.1l7.3-4.1v2.9l-7.3 4.2.1 13.1 7.2-4.2v3l-7.2 4.2v13.1l7.3-4.2v3l-7.3 4.2.1 13.1 7.2-4.2v3l-7.2 4.2v13.1l7.3-4.2v3l-7.3 4.2.1 13.1 7.2-4.2v3l-7.2 4.2v13.1l7.2-4.2.1 3-7.3 4.2.1 13.1 7.2-4.2v3l-7.2 4.2v13.1l7.2-4.2v3l-7.2 4.1V581l7.3-4.2v3l-7.2 4.1v13.2l7.2-4.2v2.9l-7.2 4.2v13.2l7.3-4.2v2.9l-7.3 4.2.1 13.2 7.2-4.2v2.9l-7.2 4.2v13.2l7.3-4.2v2.9l-7.3 4.2.1 13.2 7.2-4.2v2.9l-7.2 4.2v13.1l7.3-4.1v2.9l-7.3 4.2.1 13.1 7.2-4.1v2.9l-7.2 4.2v13.1l7.3-4.1v11.5l-7.3 4.2z"/><path class="st18" d="M1162.5 692.4l.1 13.2-7.3 4.1v-13.1zm0-16.1v13.2l-7.2 4.1-.1-13.1zm-.5-160.9v13.1l-7.2 4.2v-13.1zm0-16.1v13.1l-7.2 4.2-.1-13.1zm-.1-16.1l.1 13.1-7.3 4.2v-13.1zm.1-32.3V464l-7.2 4.2-.1-13.2zm-.1-16.1l.1 13.1-7.3 4.2V439zm0-16.1v13.1l-7.2 4.2-.1-13.1z"/></g><path class="st18" d="M1161.9 467.1v13.1l-7.2 4.2-.1-13.1zm17.3-58.4v13.1l-7.2 4.2-.1-13.1zm.5 225.4v13.2l-7.2 4.2-.1-13.2zm0-16.1v13.2l-7.3 4.2v-13.2zm-.1-16.1v13.2l-7.2 4.2v-13.2zm0-16.1V599l-7.3 4.2V590zm-.1-16l.1 13.1-7.3 4.2v-13.2zm.2 80.4l.1 13.2-7.3 4.1v-13.1z"/><g class="st7"><path class="st16" d="M1171.8 413v13.1l7.3-4.1v2.9l-7.2 4.2v13.1l7.2-4.2v3l-7.2 4.2v13.1l7.3-4.2v3l-7.3 4.2.1 13.1 7.2-4.2v3l-7.2 4.2v13.1l7.3-4.2v3l-7.3 4.2.1 13.1 7.2-4.2v3l-7.2 4.2v13.1l7.3-4.2v3l-7.3 4.2.1 13.1 7.2-4.2v3l-7.2 4.2v13.1l7.3-4.2v3l-7.3 4.2.1 13.1 7.2-4.2v3l-7.2 4.1v13.2l7.3-4.2v2.9l-7.3 4.2v13.2l7.3-4.2v2.9l-7.2 4.2v13.2l7.2-4.2.1 2.9-7.3 4.2v13.2l7.3-4.2v2.9l-7.3 4.2.1 13.2 7.2-4.2v2.9l-7.2 4.2v13.1l7.3-4.1v2.9l-7.3 4.2.1 13.2 7.2-4.2v2.9l-7.2 4.2v13.1l7.3-4.1v11.5l-7.2 4.2z"/><path class="st18" d="M1179.8 682.4l.1 13.2-7.3 4.1v-13.1zm0-16.1v13.2l-7.2 4.2-.1-13.2zm-.3-112.6v13.1l-7.2 4.2-.1-13.1zm-.1-16.1l.1 13.1-7.3 4.2v-13.1zm0-16.1v13.1l-7.2 4.2-.1-13.1zm-.1-16.1l.1 13.1-7.3 4.2v-13.1zm0-16.1v13.1l-7.2 4.2-.1-13.1zm-.1-16.1l.1 13.1-7.3 4.2v-13.1zm0-16.1v13.1l-7.2 4.2-.1-13.1z"/></g><path class="st18" d="M1179.3 440.9V454l-7.2 4.2-.1-13.1zm-.1-16.1l.1 13.1-7.3 4.2V429zm17.3 6.2v13.1l-7.2 4.2-.1-13.1zm-.1-16.1l.1 13.2-7.3 4.1v-13.1zm.3 112.7l.1 13.1-7.3 4.2v-13.1zm0-16.1v13.1l-7.2 4.2-.1-13.1zm-.1-16.1l.1 13.1-7.3 4.2v-13.1zm0-16.1v13.1l-7.2 4.2v-13.1zm0-16.1v13.1l-7.3 4.2v-13.1zm-.1-16.1v13.1l-7.2 4.2v-13.1zm.3 112.7l.1 13.1-7.3 4.2v-13.2zm0-16.1v13.1l-7.2 4.2-.1-13.1zm.3 96.5v13.2l-7.3 4.1v-13.1zm-.1-16.1v13.2l-7.2 4.2v-13.2zm.1 48.3l.1 13.2-7.3 4.1v-13.1z"/><g class="st7"><path class="st18" d="M1197 608.1v13.1l-7.2 4.2-.1-13.2z"/><path class="st16" d="M1189.1 403l.1 13.1 7.2-4.1v2.9l-7.2 4.2v13.1l7.3-4.1v2.9l-7.3 4.2.1 13.1 7.2-4.2v3l-7.2 4.2v13.1l7.2-4.2.1 3-7.3 4.2v13.1l7.3-4.2v3l-7.2 4.2v13.1l7.2-4.2v3l-7.2 4.2v13.1l7.3-4.2v3l-7.3 4.2.1 13.1 7.2-4.2v3l-7.2 4.2v13.1l7.3-4.2v3l-7.3 4.2.1 13.1 7.2-4.2v3l-7.2 4.1v13.2l7.3-4.2v3l-7.3 4.1.1 13.2 7.2-4.2v2.9l-7.2 4.2v13.2l7.3-4.2v3l-7.3 4.1.1 13.2 7.2-4.2v2.9l-7.2 4.2v13.2l7.2-4.2.1 2.9-7.3 4.2v13.1l7.3-4.1v2.9l-7.2 4.2v13.2l7.2-4.2v2.9l-7.2 4.2v13.1l7.3-4.1v11.5l-7.2 4.2z"/><path class="st21" d="M1196.9 591.9l.1 13.2-7.3 4.2v-13.2z"/><path class="st18" d="M1196.9 575.9V589l-7.2 4.2-.1-13.2z"/></g><path class="st18" d="M1196.5 398.7v13.1l-7.2 4.2v-13.1zm.6 257.6v13.2l-7.2 4.2v-13.2zm17-122.6v13.1l-7.2 4.2-.1-13.1zm.4 128.7v13.2l-7.3 4.2v-13.2z"/><path class="st16" d="M1214.4 630.2v13.2l-7.2 4.2-.1-13.2zm-.1-16.1l.1 13.2-7.3 4.2v-13.2zm0-16v13.1l-7.2 4.2-.1-13.2z"/><path class="st16" d="M1206.4 393l.1 13.1 7.2-4.1v2.9l-7.2 4.2v13.1l7.3-4.1v2.9l-7.3 4.2.1 13.1 7.2-4.2v3l-7.2 4.2v13.1l7.3-4.2v3l-7.3 4.2.1 13.1 7.2-4.2v3l-7.2 4.2v13.1l7.3-4.2v3l-7.3 4.2v13.1l7.3-4.2v3l-7.2 4.2v13.1l7.2-4.2.1 3-7.3 4.2v13.1l7.3-4.2v3l-7.3 4.2.1 13.1 7.2-4.2v3l-7.2 4.1v13.2l7.3-4.2v3l-7.3 4.1.1 13.2 7.2-4.2v2.9l-7.2 4.2v13.2l7.3-4.2v3l-7.3 4.1.1 13.2 7.2-4.2v2.9l-7.2 4.2v13.2l7.3-4.2v2.9l-7.3 4.2.1 13.2 7.2-4.2v2.9l-7.2 4.2v13.2l7.3-4.2v2.9l-7.3 4.2v13.2l7.3-4.2v11.5l-7.2 4.2z"/><path class="st16" d="M1214.2 565.9V579l-7.2 4.2-.1-13.2zm-.1-16.1l.1 13.1-7.3 4.2v-13.2z"/><path class="st18" d="M1213.8 437.1l.1 13.1-7.3 4.2v-13.1zm0-16.1v13.1l-7.2 4.2-.1-13.1zm-.1-16.1l.1 13.2-7.3 4.1v-13.1zm0-16.1V402l-7.2 4.1-.1-13.1zm.2 80.5l.1 13.1-7.3 4.2v-13.1zm0-16.1v13.1l-7.2 4.2-.1-13.1zm.2 64.4v13.1l-7.3 4.2v-13.1zm-.1-16.1v13.1l-7.2 4.2v-13.1zm0-16.1v13.1l-7.3 4.2v-13.1zm.2 96.5l.1 13.2-7.3 4.2v-13.2zm.2 64.4l.1 13.2-7.3 4.2v-13.2z"/><g class="st7"><path class="st16" d="M1204.8 333.4l-.1 27.7-65.1 37.9.1-27.8z"/><path class="st17" d="M1139.7 371.2l-.1 27.8-65.6-37.9.1-27.8z"/><path class="st15" d="M1204.8 333.4l-65.1 37.8-65.6-37.9 65.1-37.8z"/></g><g class="st7"><path class="st16" d="M1193.3 318.1V332l-53.7 31.2v-13.8z"/><path fill="#9b8af9" d="M1139.6 349.4v13.8l-54.1-31.2v-13.9z"/><path class="st15" d="M1193.3 318.1l-53.7 31.3-54.1-31.3 53.7-31.2z"/></g><path class="st15" d="M1139.5 315.4v-88.2l-42 91 42 24.3z"/><path class="st11" d="M1139.5 227.2l41.8 91-41.8 24.3z"/><path class="st15" d="M1052.4 679.1l86.8 49.5v26.6l-86.8-50.2z"/><path fill="#a899fa" d="M1225.6 679.4l-86.4 49.2v26.6l86.3-50.2z"/><g class="st7"><path class="st19" d="M1538.9 612c-23.2 13.5-60.9 13.5-84.2 0L1342 546.9l-.7 237.8 112.7 65.1c23.3 13.5 61 13.5 84.2 0l57.2-33.2.7-237.8-57.2 33.2z"/><path d="M1596.1 578.8l-57.2 33.2c-23.2 13.5-60.9 13.5-84.2 0L1342 546.9l99.2-57.6 154.9 89.5z" fill="#8873f8"/></g><g class="st7"><path d="M1532.8 592.6c-19.3 11.2-50.6 11.2-70 0l-29.3-16.9v15.9l29.3 16.9c19.4 11.2 50.7 11.2 70 0l47.5-27.6V565l-47.5 27.6z" fill="#ac9dfa"/><path class="st26" d="M1580.4 565l-47.5 27.6c-19.3 11.2-50.6 11.2-70 0l-29.3-16.9 82.4-47.9 64.4 37.2z"/></g><g class="st7"><path class="st27" d="M1373.4 549.7v3l36.6 21.2V571zM1410 571v2.9l15.5-8.9v-2.9z"/><path class="st28" d="M1373.4 549.7L1410 571l15.5-8.9-36.6-21.3z"/></g><g class="st7"><path class="st27" d="M1437.2 512.4v2.9l36.7 21.3-.1-3z"/><path class="st27" d="M1473.8 533.6l.1 3 15.5-9v-2.9z"/><path class="st28" d="M1437.2 512.4l36.6 21.2 15.6-8.9-36.6-21.3z"/></g><g class="st7"><path d="M1455.6 527.1l-18.7 10.9c-3.7 2.2-9.8 2.2-13.5 0l-10.3-5.9c-1.9-1.1-2.8-2.5-2.8-3.9v15.1c0 1.4.9 2.9 2.8 3.9l10.3 5.9c3.7 2.2 9.8 2.2 13.5 0l18.7-10.9c1.8-1.1 2.8-2.5 2.8-3.9v-15.1c0 1.4-.9 2.8-2.8 3.9z" fill="#7f69f7"/><path class="st19" d="M1455.6 519.3c3.7 2.2 3.8 5.7 0 7.8l-18.7 10.9c-3.7 2.2-9.8 2.2-13.5 0l-10.3-5.9c-3.7-2.2-3.8-5.7 0-7.8l18.7-10.9c3.7-2.2 9.8-2.2 13.5 0l10.3 5.9z"/></g><path class="st8" d="M1450.5 532.1l.1 13-9.2 5.3v-13z"/><path class="st30" d="M1539.2 636.5l56.8-33v-12.7l-56.8 33c-23.5 13.7-61.9 13.7-85.6 0l-111.8-64.5V572l111.8 64.5c23.7 13.7 62.1 13.7 85.6 0z"/><path class="st30" d="M1539.2 659.9l56.7-33v-12.7l-56.7 33c-23.5 13.7-61.9 13.7-85.6 0l-111.8-64.6v12.7l111.8 64.6c23.7 13.6 62.1 13.6 85.6 0z"/><path class="st30" d="M1453.7 670.5l-111.9-64.6v12.7l111.9 64.6c23.7 13.7 62.1 13.7 85.6 0l56.7-32.9v-12.7l-56.7 32.9c-23.5 13.7-61.9 13.7-85.6 0z"/><path class="st30" d="M1453.7 693.8l-112-64.6v12.7l112 64.6c23.7 13.7 62.1 13.7 85.6 0l56.6-32.9v-12.7l-56.6 32.9c-23.5 13.7-61.9 13.7-85.6 0z"/><path class="st30" d="M1453.7 717.2l-112-64.7v12.7l112 64.7c23.7 13.7 62.1 13.7 85.6 0l56.5-32.8v-12.7l-56.5 32.8c-23.5 13.6-61.9 13.6-85.6 0z"/><path class="st30" d="M1453.7 740.5l-112.1-64.7v12.7l112.1 64.7c23.7 13.7 62.1 13.7 85.6 0l56.5-32.8v-12.7l-56.5 32.8c-23.5 13.7-61.9 13.7-85.6 0z"/><path class="st30" d="M1453.7 763.9l-112.2-64.8v12.7l112.2 64.8c23.7 13.7 62.1 13.7 85.6 0l56.4-32.8v-12.7l-56.4 32.8c-23.5 13.6-61.9 13.6-85.6 0z"/><path class="st30" d="M1453.7 787.5l-112.2-64.8v12.7l112.2 64.8c23.7 13.7 62.1 13.7 85.6 0l56.4-32.8v-12.7l-56.4 32.8c-23.5 13.6-61.9 13.6-85.6 0z"/><g class="st7"><path class="st31" d="M1384.7 671.2l1.7-1-.2 78.5-1.7 1z"/><path class="st31" d="M1349.9 651.2l1.8-1 34.7 20-1.7 1z"/><path fill="#dfd9fd" d="M1384.7 671.2l-.2 78.5-34.8-20.1.2-78.4z"/></g><path class="st26" d="M1384.7 676.2v8c-1-1.2-2.2-2.1-3.4-2.8-5.1-2.9-10.5-1-7.6 10.6 4.7 18.2-5.8 17.1-15.4 14.4-4.2-1.2-6.8.9-8.6 3.5v14.7l34.8 20.1-34.8-20.1.2-68.5 34.8 20.1z"/><path class="st17" d="M1381.3 681.4c1.2.7 2.3 1.6 3.4 2.8l-.2 60.5-34.8-20.1v-14.7c1.7-2.7 4.4-4.7 8.6-3.5 9.6 2.7 20.1 3.9 15.4-14.4-2.9-11.6 2.5-13.6 7.6-10.6z"/><path class="st21" d="M1356 653.8c0 .8-.7 1.5-1.5 1.5s-1.5-.7-1.5-1.5.7-1.5 1.5-1.5c.9 0 1.5.7 1.5 1.5zm25.2 14.4c0 .8-.7 1.5-1.5 1.5s-1.5-.7-1.5-1.5.7-1.5 1.5-1.5 1.5.7 1.5 1.5zm151-103l-25.7 14.9-5.9-3.3 10.8-6.3-9.6-5.6-10.8 6.3-5.8-3.4 25.7-14.9 5.8 3.4-9.9 5.7 9.7 5.6 9.8-5.8z"/><path class="st21" d="M1532.3 552.8c-13.1-7.6-34.3-7.6-47.4 0-13 7.6-12.9 19.9.2 27.4 13.1 7.6 34.3 7.6 47.3 0 13-7.5 13-19.8-.1-27.4zm-1.2 26.7c-12.3 7.1-32.4 7.1-44.7 0-12.4-7.1-12.4-18.8-.1-25.9s32.4-7.1 44.7 0c12.3 7.1 12.4 18.7.1 25.9zm-96-3.8c0 .8-.7 1.5-1.5 1.5s-1.5-.7-1.5-1.5.7-1.5 1.5-1.5 1.5.6 1.5 1.5zm82.8-48.5c0 .8-.7 1.5-1.5 1.5s-1.5-.7-1.5-1.5.7-1.5 1.5-1.5 1.5.7 1.5 1.5zm64 37.8c0 .8-.7 1.5-1.5 1.5s-1.5-.7-1.5-1.5.7-1.5 1.5-1.5 1.5.6 1.5 1.5z"/><path class="st30" d="M1552.2 841.7v-25.2l14.8-9.7v26.3zm-174.4-35.9l35.2 20.3V802l-35.2-20.1zm37-2.8v24.1l26.3 15.2V818zm-38.8-22.2l-26.3-15v23.8l26.3 15.2z"/><path class="st5" d="M814.4 675.9h-3.3v18.4c0 .2.2.5.5.7.7.4 1.7.4 2.4 0 .3-.2.5-.4.5-.7v-18.4z"/><linearGradient id="SVGID_4_" gradientUnits="userSpaceOnUse" x1="812.769" y1="646.024" x2="812.769" y2="681.417"><stop offset="0" stop-color="#a99afa"/><stop offset=".458" stop-color="#9a89f9"/><stop offset="1" stop-color="#8c78f8"/></linearGradient><path d="M826.4 667c0 7.5-6.1 13.7-13.7 13.7S799 674.6 799 667c0-7.5 13.7-31.6 13.7-31.6s13.7 24 13.7 31.6z" fill="url(#SVGID_4_)"/><path class="st5" d="M859 650.1h-3.3v18.4c0 .2.2.5.5.7.7.4 1.7.4 2.4 0 .3-.2.5-.4.5-.7v-18.4z"/><linearGradient id="SVGID_5_" gradientUnits="userSpaceOnUse" x1="857.317" y1="620.189" x2="857.317" y2="655.582"><stop offset="0" stop-color="#a99afa"/><stop offset=".458" stop-color="#9a89f9"/><stop offset="1" stop-color="#8c78f8"/></linearGradient><path d="M871 641.1c0 7.5-6.1 13.7-13.7 13.7-7.5 0-13.7-6.1-13.7-13.7s13.7-31.6 13.7-31.6 13.7 24.1 13.7 31.6z" fill="url(#SVGID_5_)"/><path class="st5" d="M1420.3 424.6h-3.3V443c0 .2.2.5.5.7.7.4 1.7.4 2.4 0 .3-.2.5-.4.5-.7v-18.4z"/><linearGradient id="SVGID_6_" gradientUnits="userSpaceOnUse" x1="1404.955" y1="406.679" x2="1432.266" y2="406.679"><stop offset="0" stop-color="#a99afa"/><stop offset=".458" stop-color="#9a89f9"/><stop offset="1" stop-color="#8c78f8"/></linearGradient><path d="M1432.3 415.7c0 7.5-6.1 13.7-13.7 13.7s-13.7-6.1-13.7-13.7c0-7.5 13.7-31.6 13.7-31.6s13.7 24 13.7 31.6z" fill="url(#SVGID_6_)"/><path class="st5" d="M1092.8 845.6h-3.3V864c0 .2.2.5.5.7.7.4 1.7.4 2.4 0 .3-.2.5-.4.5-.7v-18.4z"/><linearGradient id="SVGID_7_" gradientUnits="userSpaceOnUse" x1="1091.168" y1="815.702" x2="1091.168" y2="851.095"><stop offset="0" stop-color="#a99afa"/><stop offset=".458" stop-color="#9a89f9"/><stop offset="1" stop-color="#8c78f8"/></linearGradient><path d="M1104.8 836.6c0 7.5-6.1 13.7-13.7 13.7s-13.7-6.1-13.7-13.7c0-7.5 13.7-31.6 13.7-31.6s13.7 24.1 13.7 31.6z" fill="url(#SVGID_7_)"/><path class="st5" d="M1135.6 821h-3.3v18.4c0 .2.2.5.5.7.7.4 1.7.4 2.4 0 .3-.2.5-.4.5-.7V821z"/><linearGradient id="SVGID_8_" gradientUnits="userSpaceOnUse" x1="1133.915" y1="791.088" x2="1133.915" y2="826.481"><stop offset="0" stop-color="#a99afa"/><stop offset=".458" stop-color="#9a89f9"/><stop offset="1" stop-color="#8c78f8"/></linearGradient><path d="M1147.6 812c0 7.5-6.1 13.7-13.7 13.7-7.5 0-13.7-6.1-13.7-13.7 0-7.5 13.7-31.6 13.7-31.6s13.7 24.1 13.7 31.6z" fill="url(#SVGID_8_)"/><path class="st5" d="M1540 942.7h-4.3v23.8c0 .3.2.6.6.9.9.5 2.2.5 3.1 0 .4-.2.6-.6.6-.9v-23.8z"/><linearGradient id="SVGID_9_" gradientUnits="userSpaceOnUse" x1="1537.819" y1="921.297" x2="1537.819" y2="952.281"><stop offset="0" stop-color="#a99afa"/><stop offset=".458" stop-color="#9a89f9"/><stop offset="1" stop-color="#8c78f8"/></linearGradient><path d="M1555.5 937.1c0 9.8-7.9 17.7-17.7 17.7-9.8 0-17.7-7.9-17.7-17.7s7.9-17.7 17.7-17.7c9.8 0 17.7 7.9 17.7 17.7z" fill="url(#SVGID_9_)"/><path class="st5" d="M1451.3 844.7h-4.3v23.8c0 .3.2.6.6.9.9.5 2.2.5 3.1 0 .4-.2.6-.6.6-.9v-23.8z"/><linearGradient id="SVGID_10_" gradientUnits="userSpaceOnUse" x1="1449.101" y1="823.254" x2="1449.101" y2="854.238"><stop offset="0" stop-color="#a99afa"/><stop offset=".458" stop-color="#9a89f9"/><stop offset="1" stop-color="#8c78f8"/></linearGradient><path d="M1466.8 839.1c0 9.8-7.9 17.7-17.7 17.7-9.8 0-17.7-7.9-17.7-17.7 0-9.8 7.9-17.7 17.7-17.7 9.8 0 17.7 7.9 17.7 17.7z" fill="url(#SVGID_10_)"/><path class="st5" d="M1385.8 814.5h-4.3v23.8c0 .3.2.6.6.9.9.5 2.2.5 3.1 0 .4-.2.6-.6.6-.9v-23.8z"/><linearGradient id="SVGID_11_" gradientUnits="userSpaceOnUse" x1="1383.597" y1="793.025" x2="1383.597" y2="824.01"><stop offset="0" stop-color="#a99afa"/><stop offset=".458" stop-color="#9a89f9"/><stop offset="1" stop-color="#8c78f8"/></linearGradient><path d="M1401.3 808.8c0 9.8-7.9 17.7-17.7 17.7-9.8 0-17.7-7.9-17.7-17.7 0-9.8 7.9-17.7 17.7-17.7 9.8.1 17.7 8 17.7 17.7z" fill="url(#SVGID_11_)"/><g class="st7"><path fill="#7466ff" d="M1042.3 482.7l-.3 112.6-93.1 54.1.3-112.6z"/><path class="st9" d="M949.2 536.8l-.3 112.6-48.6-28 .3-112.7z"/><path fill="#9a88f9" d="M1042.3 482.7l-93.1 54.1-48.6-28.1 93.1-54.1z"/><path d="M1036.6 495.5l-82 47.4v7.7l82-47.3zm0 15.4l-82 47.3v7.8l82-47.4zm-82 70.4l82-47.3v-7.8l-82 47.4zm0 15.4l82-47.4v-7.7l-82 47.3zm0 15.3l82-47.3v-7.8l-82 47.4zm0 15.4l82-47.4v-7.7l-82 47.3z" fill="#a190f9"/></g><g class="st7"><path class="st44" d="M943.5 494.1v2.3l28.9 16.8v-2.3z"/><path class="st45" d="M972.4 510.9v2.3l12.2-7.1v-2.3z"/><path class="st19" d="M943.5 494.1l28.9 16.8 12.2-7.1-28.9-16.8z"/></g><g class="st7"><path class="st44" d="M958.3 485.3v2.3l28.9 16.8v-2.3z"/><path class="st45" d="M987.2 502.1v2.3l12.3-7.1V495z"/><path class="st19" d="M958.3 485.3l28.9 16.8 12.3-7.1-29-16.8z"/></g><g class="st7"><path fill="#ccc3fc" d="M1023.8 742.5l-.2 72.4-67.1 39 .2-72.4z"/><path class="st15" d="M956.7 781.5l-.2 72.4-142.8-82.5.1-72.4z"/><path fill="#b8acfb" d="M1023.8 742.5l-67.1 39L813.8 699l67.1-39z"/></g><path class="st21" d="M974.4 777.6l.1 6.3-5.5 3.1v-6.3z"/><path class="st15" d="M984.9 771.6v6.2l-5.4 3.2v-6.3zm15.3-8.9v6.3l-5.4 3.1v-6.2zm10.5-6v6.2l-5.4 3.2-.1-6.3zm-36.2 32.9v6.3l-5.4 3.1v-6.2zm10.4-6l.1 6.2-5.5 3.2v-6.3zm15.3-8.8l.1 6.2-5.5 3.1v-6.2z"/><path class="st21" d="M1010.7 768.7v6.2l-5.4 3.2v-6.2z"/><path class="st15" d="M974.5 801.6v6.3l-5.4 3.1v-6.2zm10.5-6v6.2l-5.4 3.2v-6.3z"/><path class="st21" d="M1000.3 786.8v6.2l-5.4 3.1-.1-6.2z"/><path class="st15" d="M1010.7 780.7l.1 6.3-5.5 3.1v-6.2zm-36.2 32.9l.1 6.3-5.5 3.1v-6.2zm10.5-6v6.2l-5.4 3.2v-6.3zm15.3-8.8v6.2l-5.4 3.1v-6.2zm10.5-6.1v6.3l-5.4 3.1-.1-6.2zm-36.2 33v6.2l-5.4 3.1v-6.2zm10.4-6.1l.1 6.3-5.5 3.1v-6.3zm15.3-8.8l.1 6.2-5.5 3.2v-6.3z"/><path class="st21" d="M1010.8 804.7v6.3l-5.4 3.1v-6.2z"/><path d="M909.1 783.6v6.2l5.4 3.2v-6.3zm0-22.6v6.2l5.4 3.1v-6.2zm-26.6-.5v6.3l5.4 3.1v-6.2zm42.3 30.4v6.2l5.4 3.2.1-6.3zm-42.3-7.3v6.2l5.4 3.2v-6.3zm-32.8-26.9v6.2l5.5 3.2v-6.3z" fill="#415ee0"/><g class="st7"><path fill="#c8bffc" d="M882.5 658.4v5.8l-60.1 34.9v-5.8z"/><path class="st15" d="M1015.1 734.9l-.1 5.8-132.5-76.5v-5.8zM955 772.2l-.1 5.8-136.6-78.9.1-5.8z"/><path fill="#c2b7fb" d="M1019.1 734.9v5.8L954.9 778l.1-5.8z"/><path d="M882.5 656l-64.1 37.3L955 772.2l64.1-37.3L882.5 656zM955 769.8l-132.6-76.5 60.1-34.9 132.6 76.5-60.1 34.9z" fill="#8671f7"/></g><g class="st7"><path class="st52" d="M924.3 711.2v7l-5.8 3.3.1-6.9z"/><path class="st53" d="M918.6 714.6l-.1 6.9-5.8-3.3.1-7z"/><path class="st54" d="M924.3 711.2l-5.7 3.4-5.8-3.4 5.7-3.3z"/></g><g class="st7"><path class="st52" d="M944.3 722.7l-.1 7-5.7 3.3v-7z"/><path class="st53" d="M938.5 726v7l-5.8-3.3v-7z"/><path class="st54" d="M944.3 722.7l-5.8 3.3-5.8-3.3 5.8-3.3z"/></g><g class="st7"><path class="st52" d="M965.1 734.9v7l-5.7 3.3v-7z"/><path class="st53" d="M959.4 738.2v7l-5.8-3.3v-7z"/><path class="st54" d="M965.1 734.9l-5.7 3.3-5.8-3.3 5.7-3.4z"/></g><g class="st7"><path class="st52" d="M898.9 679.2v3.5l-43.8 25.4v-3.5z"/><path class="st15" d="M855.1 704.6v3.5l-18.5-10.7v-3.5z"/><path class="st16" d="M898.9 679.2l-43.8 25.4-18.5-10.7 43.7-25.5z"/></g><g class="st7"><path class="st52" d="M924 693.3v3.5l-43.8 25.4v-3.5z"/><path class="st15" d="M880.2 718.7v3.5l-18.6-10.7.1-3.5z"/><path class="st16" d="M924 693.3l-43.8 25.4-18.5-10.7 43.7-25.5z"/></g><g class="st7"><path class="st55" d="M850 671.3l-.1 23.5c0 .1 0 .2-.1.2-.2.1-.5.1-.7 0-.1-.1-.2-.1-.2-.2l.1-23.5c0 .1.1.2.2.2.2.1.5.1.7 0 0 0 .1-.1.1-.2z"/></g><g class="st7"><path class="st55" d="M875.7 685.9l-.1 23.5c0 .1 0 .2-.1.2-.2.1-.5.1-.7 0-.1-.1-.2-.1-.2-.2l.1-23.5c0 .1.1.2.2.2.2.1.5.1.7 0 .1-.1.1-.2.1-.2z"/></g><g class="st7"><path class="st9" d="M1168.9 896.7l.1 43.8 99.6 57.9-.1-43.8z"/><path class="st15" d="M1268.5 954.6l.1 43.8 100.3-57.9-.1-43.8z"/><path class="st56" d="M1168.9 896.7l99.6 57.9 100.3-57.9-99.6-57.9z"/></g><path class="st9" d="M1325 942.6v23.2l32.7-18.8-.1-23.2zm-40.1 23.2V989l32.7-18.9v-23.2z"/><g class="st7"><path class="st9" d="M1184 572.2l.1 325.8 84.6 49.2-.1-325.8z"/><path class="st15" d="M1268.6 621.4l.1 325.8 85.1-49.2-.1-325.8z"/><path fill="#a595f9" d="M1184 572.2l84.6 49.2 85.1-49.2-84.6-49.1z"/></g><path class="st10" d="M1328.2 601.3l9.8-5.7.4 304.2-9.8 5.7zm-20.1 11.6l9.8-5.7.4 304.2-9.8 5.7zm-20.1 11.6l9.8-5.7.4 304.2-9.8 5.7z"/><g class="st7"><path class="st9" d="M1310.4 568.4l.1 7.4 16 9.2-.1-7.4z"/><path class="st58" d="M1326.4 577.6l.1 7.4 16-9.2v-7.4z"/><path class="st56" d="M1310.4 568.4l16 9.2 16.1-9.2-16-9.3z"/></g><g class="st7"><path class="st9" d="M1320.4 561.1v7.4l6.1 3.5v-7.4z"/><path class="st58" d="M1326.5 564.6v7.4l6.1-3.5v-7.4z"/><path class="st19" d="M1320.4 561.1l6.1 3.5 6.1-3.5-6.1-3.6z"/></g><g class="st7"><path class="st9" d="M1253.8 537v7.3l16 9.3v-7.4z"/><path class="st58" d="M1269.8 546.2v7.4l16.1-9.2V537z"/><path class="st56" d="M1253.8 537l16 9.2 16.1-9.2-16-9.3z"/></g><g class="st7"><path class="st9" d="M1263.7 529.7l.1 7.4 6 3.5v-7.4z"/><path class="st58" d="M1269.8 533.2v7.4l6.2-3.5v-7.4z"/><path class="st19" d="M1263.7 529.7l6.1 3.5 6.2-3.5-6.1-3.6z"/></g><g class="st7"><path class="st15" d="M1210.8 575.4v4.7l59.3 34.5v-4.7zm59.3 34.5v4.7l25.2-14.5v-4.8z"/><path class="st19" d="M1210.8 575.4l59.3 34.5 25.2-14.6-59.3-34.4z"/></g><g class="st7"><path class="st13" d="M1321.5 551.4v4.7c0 .2.1.3.3.5.5.3 1.2.3 1.7 0 .2-.1.3-.3.3-.5v-4.7c0 .2-.1.3-.3.5-.5.3-1.2.3-1.7 0-.2-.2-.3-.4-.3-.5z"/><path class="st13" d="M1321.8 550.9c-.5.3-.5.7 0 1 .5.3 1.2.3 1.7 0s.5-.7 0-1c-.5-.3-1.2-.3-1.7 0z"/></g><g class="st7"><path class="st13" d="M1285 530.8v4.7c0 .2.1.3.3.5.5.3 1.2.3 1.7 0 .2-.1.3-.3.3-.5v-4.7c0 .2-.1.3-.3.5-.5.3-1.2.3-1.7 0-.1-.1-.3-.3-.3-.5z"/><path class="st13" d="M1285.4 530.3c-.5.3-.5.7 0 1 .5.3 1.2.3 1.7 0s.5-.7 0-1c-.5-.2-1.3-.2-1.7 0z"/></g><g class="st7"><path class="st13" d="M1332.6 558.8l2.7-1.6.1-15.2-2.7 1.5z"/><path fill="#b0a3fa" d="M1332.7 543.5l2.7-1.5-54.1-31.2-2.7 1.5z"/><path class="st9" d="M1278.6 512.3v15.3l54 31.2.1-15.3z"/></g><defs><path id="SVGID_12_" d="M1044.9 920.9l-17.5 10.2c-.8.5-1.3 1.4-1.3 2.8l17.5-10.2c0-1.4.5-2.4 1.3-2.8z"/></defs><use xlink:href="#SVGID_12_" overflow="visible" fill="#2e0069"/><clipPath id="SVGID_13_"><use xlink:href="#SVGID_12_" overflow="visible"/></clipPath><g clip-path="url(#SVGID_13_)"><path class="st61" d="M1026.1 933.9l17.5-10.2c0-1.4.5-2.4 1.3-2.8l-17.5 10.2c-.8.4-1.3 1.4-1.3 2.8z"/></g><path class="st62" d="M1054.4 950.2l17.5-10.2.1-25.3-17.6 10.1z"/><path class="st63" d="M1054.4 924.8l17.6-10.1-33.1-19.1-17.5 10.2z"/><g class="st7"><path class="st61" d="M1030.1 930.1c.7-.4 1.7-.4 2.8.3 2.2 1.2 3.9 4.3 3.9 6.8 0 1.2-.4 2.1-1.1 2.5l-2.6 1.5c.7-.4 1.1-1.3 1.1-2.5 0-2.5-1.7-5.5-3.9-6.8-1.1-.6-2.1-.7-2.8-.3l2.6-1.5z"/></g><path class="st64" d="M1030.4 931.8c-2.2-1.2-3.9-.2-3.9 2.2 0 2.5 1.7 5.5 3.9 6.8 2.2 1.2 3.9.2 3.9-2.2 0-2.5-1.8-5.5-3.9-6.8z"/><path class="st9" d="M1030.3 933.7c-1.3-.7-2.3-.1-2.3 1.3 0 1.5 1 3.3 2.3 4 1.3.7 2.3.1 2.3-1.3.1-1.5-1-3.3-2.3-4z"/><path class="st65" d="M1021.4 905.8l-.1 25.3 4.8 2.8c0-2.8 2-3.9 4.4-2.5 2.4 1.4 4.4 4.8 4.4 7.7l19.4 11.2.1-25.3-33-19.2z"/><path class="st61" d="M1079.7 943.4l-14.6 8.5c-.8.5-1.3 1.4-1.3 2.8l14.6-8.5c0-1.4.5-2.4 1.3-2.8z"/><g class="st7"><path class="st61" d="M1067.9 951.1c.7-.4 1.7-.4 2.8.3 2.2 1.2 3.9 4.3 3.9 6.8 0 1.2-.4 2.1-1.1 2.5l-2.6 1.5c.7-.4 1.1-1.3 1.1-2.5 0-2.5-1.7-5.5-3.9-6.8-1.1-.6-2.1-.7-2.8-.3l2.6-1.5z"/></g><path class="st9" d="M1069.4 947.2l14.6-8.5-4.2-9.6-14.6 8.4z"/><path class="st63" d="M1065.2 937.5l14.6-8.4-8.9-5.9-14.6 8.5zm18.8 1.2l3.2 2.7c1.2 1 2 2.7 2 4.1l-14.6 8.5c0-1.4-.8-3.1-2-4.1l-3.2-2.7 14.6-8.5z"/><path class="st64" d="M1068.1 952.8c-2.2-1.2-3.9-.2-3.9 2.2 0 2.5 1.7 5.5 3.9 6.8 2.2 1.2 3.9.2 3.9-2.2.1-2.5-1.7-5.5-3.9-6.8z"/><path class="st9" d="M1068.1 954.6c-1.3-.7-2.3-.1-2.3 1.3 0 1.5 1 3.3 2.3 4s2.3.1 2.3-1.3c.1-1.4-1-3.2-2.3-4z"/><path class="st62" d="M1074.6 961l14.6-8.5.1-7.1-14.6 8.5z"/><path d="M1086.9 949.3c-.7.4-1.2 1.3-1.2 2.1s.5 1.1 1.2.7c.7-.4 1.2-1.3 1.2-2.1s-.5-1.1-1.2-.7zm-8.9 5.1c-.7.4-1.2 1.3-1.2 2.1s.5 1.1 1.2.7c.7-.4 1.2-1.3 1.2-2.1s-.5-1.1-1.2-.7z" fill="#bbb0fb"/><path class="st62" d="M1056.3 931.7v18.6l7.6 4.4c0-2.8 2-3.9 4.4-2.5 2.4 1.4 4.4 4.8 4.4 7.7l2 1.1v-7c0-1.4-.8-3.1-2-4.1l-3.2-2.7-4.2-9.6-9-5.9z"/><path class="st9" d="M1064.2 938.3l3.1 7.2c.2.5-.3 1-.8.7l-9.4-5.6c-.1 0-.1-.1-.1-.2v-6.6c0-.1.2-.2.3-.1l6.9 4.6c0-.1 0-.1 0 0z"/><defs><path id="SVGID_14_" d="M1444 958.2l17.5 10.2c.8.5 1.3 1.4 1.3 2.8l-17.5-10.2c0-1.4-.5-2.3-1.3-2.8z"/></defs><use xlink:href="#SVGID_14_" overflow="visible" fill="#2e0069"/><clipPath id="SVGID_15_"><use xlink:href="#SVGID_14_" overflow="visible"/></clipPath><g clip-path="url(#SVGID_15_)"><path class="st61" d="M1462.8 971.2l-17.5-10.2c0-1.4-.5-2.4-1.3-2.8l17.5 10.2c.8.4 1.3 1.4 1.3 2.8z"/></g><path class="st62" d="M1434.6 987.5l-17.5-10.2-.1-25.3 17.5 10.2z"/><path class="st63" d="M1434.5 962.2L1417 952l33.1-19.1 17.5 10.2z"/><g class="st7"><path class="st61" d="M1458.8 967.4c-.7-.4-1.7-.4-2.8.3-2.2 1.2-3.9 4.3-3.9 6.8 0 1.2.4 2.1 1.1 2.5l2.6 1.5c-.7-.4-1.1-1.3-1.1-2.5 0-2.5 1.7-5.5 3.9-6.8 1.1-.6 2.1-.7 2.8-.3l-2.6-1.5z"/></g><path d="M1458.6 969.2c2.2-1.2 3.9-.2 3.9 2.2 0 2.5-1.7 5.5-3.9 6.8-2.2 1.2-3.9.2-3.9-2.2 0-2.5 1.7-5.6 3.9-6.8z" fill="#542488"/><path class="st61" d="M1458.6 971c1.3-.7 2.3-.1 2.3 1.3s-1 3.3-2.3 4c-1.3.7-2.3.1-2.3-1.3 0-1.5 1-3.3 2.3-4z"/><path class="st65" d="M1467.6 943.1l.1 25.3-4.8 2.8c0-2.8-2-3.9-4.4-2.5-2.4 1.4-4.4 4.8-4.4 7.7l-19.4 11.2-.1-25.3 33-19.2z"/><path class="st61" d="M1409.2 980.7l14.6 8.5c.8.5 1.3 1.4 1.3 2.8l-14.6-8.5c0-1.3-.5-2.3-1.3-2.8z"/><g class="st7"><path class="st61" d="M1421 988.4c-.7-.4-1.7-.4-2.8.3-2.2 1.2-3.9 4.3-3.9 6.8 0 1.2.4 2.1 1.1 2.5l2.6 1.5c-.7-.4-1.1-1.3-1.1-2.5 0-2.5 1.7-5.5 3.9-6.8 1.1-.6 2.1-.7 2.8-.3l-2.6-1.5z"/></g><path class="st9" d="M1419.5 984.5l-14.6-8.5 4.3-9.6 14.6 8.5z"/><path class="st63" d="M1423.8 974.9l-14.6-8.5 8.9-5.8 14.6 8.5zm-18.9 1.1l-3.2 2.7c-1.2 1-2 2.7-2 4.1l14.6 8.5c0-1.4.8-3.1 2-4.1l3.2-2.7-14.6-8.5z"/><path class="st64" d="M1420.8 990.2c2.2-1.2 3.9-.2 3.9 2.2 0 2.5-1.7 5.5-3.9 6.8-2.2 1.2-3.9.2-3.9-2.2 0-2.6 1.8-5.6 3.9-6.8z"/><path class="st9" d="M1420.8 992c1.3-.7 2.3-.1 2.3 1.3 0 1.5-1 3.3-2.3 4-1.3.7-2.3.1-2.3-1.3 0-1.5 1-3.3 2.3-4z"/><path class="st62" d="M1414.3 998.3l-14.6-8.5v-7l14.6 8.5z"/><path class="st63" d="M1402 986.6c.7.4 1.2 1.3 1.2 2.1s-.5 1.1-1.2.7c-.7-.4-1.2-1.3-1.2-2.1s.6-1.1 1.2-.7zm9 5.2c.7.4 1.2 1.3 1.2 2.1s-.5 1.1-1.2.7c-.7-.4-1.2-1.3-1.2-2.1-.1-.8.5-1.1 1.2-.7z"/><path class="st65" d="M1432.7 969.1v18.6l-7.6 4.4c0-2.8-2-3.9-4.4-2.5-2.4 1.4-4.4 4.8-4.4 7.7l-2 1.1v-7c0-1.4.8-3.1 2-4.1l3.2-2.7 4.2-9.6 9-5.9z"/><path class="st9" d="M1424.7 975.6l-3.1 7.2c-.2.5.3 1 .8.7l9.4-5.6c.1 0 .1-.1.1-.2v-6.6c0-.1-.2-.2-.3-.1l-6.9 4.6c.1 0 .1 0 0 0z"/><defs><path id="SVGID_16_" d="M1474.3 975.8l17.5 10.2c.8.5 1.3 1.4 1.3 2.8l-17.5-10.2c0-1.3-.5-2.3-1.3-2.8z"/></defs><use xlink:href="#SVGID_16_" overflow="visible" fill="#2e0069"/><clipPath id="SVGID_17_"><use xlink:href="#SVGID_16_" overflow="visible"/></clipPath><g clip-path="url(#SVGID_17_)"><path class="st61" d="M1493.1 988.9l-17.5-10.2c0-1.4-.5-2.4-1.3-2.8l17.5 10.2c.8.4 1.3 1.4 1.3 2.8z"/></g><path class="st62" d="M1464.9 1005.2l-17.5-10.2-.1-25.4 17.5 10.2z"/><path class="st63" d="M1464.8 979.8l-17.5-10.2 33-19 17.6 10.1z"/><g class="st7"><path class="st61" d="M1489.1 985c-.7-.4-1.7-.4-2.8.3-2.2 1.2-3.9 4.3-3.9 6.8 0 1.2.4 2.1 1.1 2.5l2.6 1.5c-.7-.4-1.1-1.3-1.1-2.5 0-2.5 1.7-5.5 3.9-6.8 1.1-.6 2.1-.7 2.8-.3l-2.6-1.5z"/></g><path class="st64" d="M1488.9 986.8c2.2-1.2 3.9-.2 3.9 2.2 0 2.5-1.7 5.5-3.9 6.8-2.2 1.2-3.9.2-3.9-2.2 0-2.5 1.7-5.5 3.9-6.8z"/><path class="st9" d="M1488.9 988.6c1.3-.7 2.3-.1 2.3 1.3 0 1.5-1 3.3-2.3 4-1.3.7-2.3.1-2.3-1.3 0-1.4 1-3.2 2.3-4z"/><path class="st65" d="M1497.9 960.7l.1 25.3-4.8 2.8c0-2.8-2-3.9-4.4-2.5-2.4 1.4-4.4 4.8-4.4 7.7l-19.4 11.2-.1-25.3 33-19.2z"/><path class="st61" d="M1439.5 998.4l14.6 8.5c.8.5 1.3 1.4 1.3 2.8l-14.6-8.5c0-1.4-.5-2.4-1.3-2.8z"/><g class="st7"><path class="st61" d="M1451.3 1006c-.7-.4-1.7-.4-2.8.3-2.2 1.2-3.9 4.3-3.9 6.8 0 1.2.4 2.1 1.1 2.5l2.6 1.5c-.7-.4-1.1-1.3-1.1-2.5 0-2.5 1.7-5.5 3.9-6.8 1.1-.6 2.1-.7 2.8-.3l-2.6-1.5z"/></g><path class="st9" d="M1449.8 1002.1l-14.6-8.4 4.3-9.7 14.6 8.5z"/><path class="st63" d="M1454.1 992.5l-14.6-8.5 8.9-5.8 14.6 8.5zm-18.9 1.2l-3.2 2.7c-1.2 1-2 2.7-2 4.1l14.6 8.5c0-1.4.8-3.1 2-4.1l3.2-2.7-14.6-8.5z"/><path class="st64" d="M1451.1 1007.8c2.2-1.2 3.9-.2 3.9 2.2 0 2.5-1.7 5.5-3.9 6.8-2.2 1.2-3.9.2-3.9-2.2 0-2.5 1.7-5.5 3.9-6.8z"/><path class="st9" d="M1451.1 1009.6c1.3-.7 2.3-.1 2.3 1.3 0 1.5-1 3.3-2.3 4-1.3.7-2.3.1-2.3-1.3 0-1.4 1-3.2 2.3-4z"/><path class="st62" d="M1444.6 1015.9l-14.6-8.4v-7.1l14.6 8.5z"/><path class="st63" d="M1432.3 1004.3c.7.4 1.2 1.3 1.2 2.1s-.5 1.1-1.2.7c-.7-.4-1.2-1.3-1.2-2.1s.5-1.1 1.2-.7zm8.9 5.1c.7.4 1.2 1.3 1.2 2.1s-.5 1.1-1.2.7c-.7-.4-1.2-1.3-1.2-2.1s.6-1.1 1.2-.7z"/><path class="st65" d="M1463 986.7v18.6l-7.6 4.4c0-2.8-2-3.9-4.4-2.5-2.4 1.4-4.4 4.8-4.4 7.7l-2 1.1v-7c0-1.4.8-3.1 2-4.1l3.2-2.7 4.2-9.6 9-5.9z"/><path class="st9" d="M1455 993.3l-3.1 7.2c-.2.5.3 1 .8.7l9.4-5.6c.1 0 .1-.1.1-.2v-6.6c0-.1-.2-.2-.3-.1l-6.9 4.6c.1-.1 0-.1 0 0z"/><path class="st21" d="M970.8 432.2l2.9-4.9h-12.6v-17.9l-14.7 24.3-3 4.9H956v17.9l14.8-24.3zm-25.9 242.6c0 2.5-2 4.6-4.6 4.6-2.5 0-4.6-2-4.6-4.6 0-2.5 2-4.6 4.6-4.6 2.6.1 4.6 2.1 4.6 4.6zm-4.5-24.5c6 0 11.5 2.2 15.7 5.7.9.7 2.2.7 3-.1.9-.9.9-2.5-.2-3.3-5-4.2-11.5-6.7-18.5-6.7s-13.4 2.5-18.4 6.6c-1 .8-1.1 2.4-.2 3.3.8.8 2.1.9 3 .2 4.2-3.5 9.7-5.7 15.6-5.7z"/><path class="st21" d="M927.3 661.3c.8.8 2 .9 2.9.2 2.8-2.1 6.3-3.4 10.1-3.4 3.9 0 7.4 1.3 10.3 3.5.9.7 2.1.6 2.9-.2.9-.9.9-2.5-.2-3.3-3.6-2.8-8.1-4.5-13-4.5-4.8 0-9.3 1.6-12.8 4.4-1 .8-1.1 2.4-.2 3.3z"/><path class="st21" d="M933 667c.8.8 1.9.8 2.8.3 1.3-.8 2.9-1.3 4.5-1.3 1.7 0 3.3.5 4.7 1.4.9.6 2.1.5 2.8-.2 1-1 .8-2.7-.4-3.4-2.1-1.3-4.5-2.1-7.2-2.1-2.6 0-4.9.7-7 2-1 .6-1.2 2.3-.2 3.3zm355.3-176.6c-1.5 2.5-3.6 4.6-6.3 6.2-2.7 1.6-5.9 2.6-9.6 2.9v6.6h-4.7v-6.6c-5.6-.4-10-2-13.4-4.9-3.4-2.9-5-6.8-5-11.7h12.3c.3 4.1 2.4 6.6 6.1 7.3v-15.6c-4.2-1.1-7.4-2.1-9.7-3-2.3-.9-4.3-2.4-6.1-4.6-1.8-2.2-2.7-5.1-2.7-8.8 0-3.2.8-6 2.4-8.5 1.6-2.5 3.8-4.5 6.6-5.9 2.8-1.5 6-2.3 9.4-2.6v-6.6h4.7v6.6c5.3.3 9.5 1.8 12.6 4.5 3.1 2.7 4.8 6.6 5.1 11.7h-12c-.2-1.6-.7-3.1-1.8-4.3-1-1.2-2.3-2-4-2.5v15.5c4 1 7.2 2 9.5 2.9 2.3.9 4.3 2.4 6 4.5 1.7 2.1 2.6 5.1 2.6 8.8.2 2.9-.5 5.6-2 8.1zm-25.4-28.4c1.1 1.1 2.7 2.1 4.8 2.8v-14.2c-2 .3-3.5 1.1-4.7 2.2-1.2 1.1-1.8 2.7-1.8 4.7.1 1.8.6 3.3 1.7 4.5zm14.1 25.7c1.1-1.3 1.6-2.8 1.6-4.6 0-1.8-.5-3.2-1.6-4.3-1.1-1.1-2.6-2-4.6-2.8v14.2c2-.4 3.6-1.2 4.6-2.5z"/><g opacity=".05"><linearGradient id="SVGID_47_" gradientUnits="userSpaceOnUse" x1="170.904" y1="717.975" x2="634.279" y2="717.975"><stop offset="0" stop-color="#788acb"/><stop offset="1" stop-color="#fff"/></linearGradient><path fill="url(#SVGID_47_)" d="M666.4 672.2H334.1v91.5h319.4z"/><path class="st103" d="M334.1 496.7v267l91.6-52.9v-267z"/><linearGradient id="SVGID_48_" gradientUnits="userSpaceOnUse" x1="318.846" y1="474.147" x2="267.131" y2="693.456"><stop offset="0" stop-color="#fff"/><stop offset="1" stop-color="#e1e6f0"/></linearGradient><path fill="url(#SVGID_48_)" d="M334.1 496.7v267l-91.6-52.9v-267z"/><linearGradient id="SVGID_49_" gradientUnits="userSpaceOnUse" x1="338.446" y1="350.97" x2="332.044" y2="486.998"><stop offset="0" stop-color="#fff"/><stop offset="1" stop-color="#e1e6f0"/></linearGradient><path fill="url(#SVGID_49_)" d="M242.5 443.8l91.6 52.9 91.6-52.9-91.6-52.8z"/><path class="st103" d="M95.4 524.5V710l58.3-33.7V490.9z"/><linearGradient id="SVGID_50_" gradientUnits="userSpaceOnUse" x1="87.325" y1="511.171" x2="51.721" y2="662.162"><stop offset="0" stop-color="#fff"/><stop offset="1" stop-color="#e1e6f0"/></linearGradient><path fill="url(#SVGID_50_)" d="M95.4 524.5V710l-58.3-33.7V490.9z"/><linearGradient id="SVGID_51_" gradientUnits="userSpaceOnUse" x1="98.187" y1="431.806" x2="94.116" y2="518.321"><stop offset="0" stop-color="#fff"/><stop offset="1" stop-color="#e1e6f0"/></linearGradient><path fill="url(#SVGID_51_)" d="M37.1 490.9l58.3 33.6 58.3-33.6-58.3-33.7z"/><linearGradient id="SVGID_52_" gradientUnits="userSpaceOnUse" x1="-66.046" y1="855.704" x2="334.693" y2="855.704"><stop offset="0" stop-color="#788acb"/><stop offset="1" stop-color="#fff"/></linearGradient><path fill="url(#SVGID_52_)" d="M78.3 796.2h341.2v119H78.3z"/><linearGradient id="SVGID_53_" gradientUnits="userSpaceOnUse" x1="28.309" y1="492.646" x2="175.926" y2="930.273"><stop offset="0" stop-color="#788acb"/><stop offset="1" stop-color="#dee8ff"/></linearGradient><path fill="url(#SVGID_53_)" d="M78.3 690.7v224.5l91.6-52.9V637.8z"/><path class="st21" d="M-13.3 637.8l91.6 52.9 91.6-52.9-91.6 52.9z"/><linearGradient id="SVGID_54_" gradientUnits="userSpaceOnUse" x1="58.668" y1="665.313" x2="14.32" y2="853.383"><stop offset="0" stop-color="#fff"/><stop offset="1" stop-color="#e1e6f0"/></linearGradient><path fill="url(#SVGID_54_)" d="M78.3 690.7v224.5l-91.6-52.9V637.8z"/><linearGradient id="SVGID_55_" gradientUnits="userSpaceOnUse" x1="82.623" y1="544.913" x2="76.222" y2="680.942"><stop offset="0" stop-color="#fff"/><stop offset="1" stop-color="#e1e6f0"/></linearGradient><path fill="url(#SVGID_55_)" d="M-13.3 637.8l91.6 52.9 91.6-52.9-91.6-52.9z"/><linearGradient id="SVGID_56_" gradientUnits="userSpaceOnUse" x1="489.635" y1="528.717" x2="662.076" y2="528.717"><stop offset="0" stop-color="#788acb"/><stop offset=".214" stop-color="#a2aedb"/><stop offset=".454" stop-color="#cad1eb"/><stop offset=".673" stop-color="#e7eaf6"/><stop offset=".862" stop-color="#f9fafd"/><stop offset="1" stop-color="#fff"/></linearGradient><path fill="url(#SVGID_56_)" d="M515.8 488.3h151.5v80.8H515.8z"/><linearGradient id="SVGID_57_" gradientUnits="userSpaceOnUse" x1="497.916" y1="517.877" x2="570.181" y2="559.22"><stop offset="0" stop-color="#788acb"/><stop offset="1" stop-color="#dee8ff"/></linearGradient><path fill="url(#SVGID_57_)" d="M515.8 554.2v14.9l58.4-33.7v-14.9z"/><path class="st21" d="M457.3 520.5l58.5 33.7 58.4-33.7-58.4 33.7z"/><linearGradient id="SVGID_58_" gradientUnits="userSpaceOnUse" x1="490.113" y1="529.648" x2="484.069" y2="555.278"><stop offset="0" stop-color="#fff"/><stop offset="1" stop-color="#e1e6f0"/></linearGradient><path fill="url(#SVGID_58_)" d="M515.8 554.2v14.9l-58.5-33.7v-14.9z"/><linearGradient id="SVGID_59_" gradientUnits="userSpaceOnUse" x1="528.734" y1="520.48" x2="461.734" y2="520.48"><stop offset="0" stop-color="#788acb"/><stop offset="1" stop-color="#dee8ff"/></linearGradient><path fill="url(#SVGID_59_)" d="M457.3 520.5l58.5 33.7 58.4-33.7-58.4-33.8z"/><linearGradient id="SVGID_60_" gradientUnits="userSpaceOnUse" x1="506.031" y1="503.693" x2="578.296" y2="545.035"><stop offset="0" stop-color="#788acb"/><stop offset="1" stop-color="#dee8ff"/></linearGradient><path fill="url(#SVGID_60_)" d="M515.8 535.4v14.9l58.4-33.7v-14.9z"/><path class="st21" d="M457.3 501.7l58.5 33.7 58.4-33.7-58.4 33.7z"/><linearGradient id="SVGID_61_" gradientUnits="userSpaceOnUse" x1="490.113" y1="510.822" x2="484.069" y2="536.451"><stop offset="0" stop-color="#fff"/><stop offset="1" stop-color="#e1e6f0"/></linearGradient><path fill="url(#SVGID_61_)" d="M515.8 535.4v14.9l-58.5-33.7v-14.9z"/><linearGradient id="SVGID_62_" gradientUnits="userSpaceOnUse" x1="528.734" y1="501.653" x2="461.734" y2="501.653"><stop offset="0" stop-color="#788acb"/><stop offset="1" stop-color="#dee8ff"/></linearGradient><path fill="url(#SVGID_62_)" d="M457.3 501.7l58.5 33.7 58.4-33.7-58.4-33.8z"/><linearGradient id="SVGID_63_" gradientUnits="userSpaceOnUse" x1="514.145" y1="489.508" x2="586.411" y2="530.851"><stop offset="0" stop-color="#788acb"/><stop offset="1" stop-color="#dee8ff"/></linearGradient><path fill="url(#SVGID_63_)" d="M515.8 516.6v14.9l58.4-33.8v-14.9z"/><path class="st21" d="M457.3 482.8l58.5 33.8 58.4-33.8-58.4 33.8z"/><linearGradient id="SVGID_64_" gradientUnits="userSpaceOnUse" x1="490.113" y1="491.995" x2="484.069" y2="517.624"><stop offset="0" stop-color="#fff"/><stop offset="1" stop-color="#e1e6f0"/></linearGradient><path fill="url(#SVGID_64_)" d="M515.8 516.6v14.9l-58.5-33.8v-14.9z"/><linearGradient id="SVGID_65_" gradientUnits="userSpaceOnUse" x1="528.734" y1="482.827" x2="461.734" y2="482.827"><stop offset="0" stop-color="#788acb"/><stop offset="1" stop-color="#dee8ff"/></linearGradient><path fill="url(#SVGID_65_)" d="M544 500.2l30.2-17.4-58.4-33.7-58.5 33.7 58.5 33.8 28.2-16.4"/><linearGradient id="SVGID_66_" gradientUnits="userSpaceOnUse" x1="522.26" y1="475.324" x2="594.526" y2="516.666"><stop offset="0" stop-color="#788acb"/><stop offset="1" stop-color="#dee8ff"/></linearGradient><path fill="url(#SVGID_66_)" d="M515.8 497.7v14.9l58.4-33.7V464z"/><path class="st21" d="M457.3 464l58.5 33.7 58.4-33.7-58.4 33.7z"/><linearGradient id="SVGID_67_" gradientUnits="userSpaceOnUse" x1="490.113" y1="473.168" x2="484.069" y2="498.797"><stop offset="0" stop-color="#fff"/><stop offset="1" stop-color="#e1e6f0"/></linearGradient><path fill="url(#SVGID_67_)" d="M515.8 497.7v14.9l-58.5-33.7V464z"/><linearGradient id="SVGID_68_" gradientUnits="userSpaceOnUse" x1="572.755" y1="464" x2="457.356" y2="464"><stop offset="0" stop-color="#fff"/><stop offset="1" stop-color="#e1e6f0"/></linearGradient><path fill="url(#SVGID_68_)" d="M457.3 464l58.5 33.7 58.4-33.7-58.4-33.7z"/><linearGradient id="SVGID_69_" gradientUnits="userSpaceOnUse" x1="505.949" y1="310.335" x2="774.72" y2="1107.133"><stop offset="0" stop-color="#788acb"/><stop offset="1" stop-color="#dee8ff"/></linearGradient><path fill="url(#SVGID_69_)" d="M631 643v425.1l98.5-56.8V586.1z"/><path class="st21" d="M532.5 586.1L631 643l98.5-56.9L631 643z"/><linearGradient id="SVGID_70_" gradientUnits="userSpaceOnUse" x1="628.806" y1="627.727" x2="549.262" y2="965.054"><stop offset="0" stop-color="#fff"/><stop offset="1" stop-color="#e1e6f0"/></linearGradient><path fill="url(#SVGID_70_)" d="M631 643v425.1l-98.5-56.8V586.1z"/><linearGradient id="SVGID_71_" gradientUnits="userSpaceOnUse" x1="635.727" y1="486.262" x2="628.845" y2="632.517"><stop offset="0" stop-color="#fff"/><stop offset="1" stop-color="#e1e6f0"/></linearGradient><path fill="url(#SVGID_71_)" d="M532.5 586.1L631 643l98.5-56.9-98.5-56.8z"/></g><path class="st128" d="M1655.8 178.3c9.1 34.1-11.1 69.2-45.3 78.4-34.1 9.1-69.2-11.1-78.4-45.3-9.1-34.1 11.1-69.2 45.3-78.4 34.2-9.1 69.3 11.2 78.4 45.3zM1495 838.5c22.4 0 40.5 18.1 40.5 40.5s-18.1 40.5-40.5 40.5-40.5-18.1-40.5-40.5 18.1-40.5 40.5-40.5zm-638-33c22.4 0 40.5 18.1 40.5 40.5s-18.1 40.5-40.5 40.5-40.5-18.1-40.5-40.5 18.1-40.5 40.5-40.5z"/><path class="st128" d="M1600 225.5c22.4 0 40.5 18.1 40.5 40.5s-18.1 40.5-40.5 40.5-40.5-18.1-40.5-40.5 18.1-40.5 40.5-40.5zm-703 7.2c7.4 0 13.3 6 13.3 13.3 0 7.4-6 13.3-13.3 13.3-7.4 0-13.3-6-13.3-13.3 0-7.4 5.9-13.3 13.3-13.3zM722.7-45.9c25.5 0 46.2 20.7 46.2 46.2s-20.7 46.2-46.2 46.2c-25.5 0-46.2-20.7-46.2-46.2s20.7-46.2 46.2-46.2z"/></svg>